
<svg width="589" height="57" viewBox="0 0 589 57" fill="none" xmlns="http://www.w3.org/2000/svg">
<path d="M18.9859 14.2414C18.841 14.3803 18.8349 14.4166 18.8349 15.2077V16.023H18.0136C16.9869 16.023 16.7815 16.0774 16.389 16.476C16.0448 16.8142 15.936 17.092 15.936 17.6114V17.9496L12.0588 17.9737C7.72859 17.9979 7.73463 17.9979 6.39993 18.4569C5.09544 18.9038 4.09895 19.701 3.62184 20.6793C3.48898 20.9632 3.37423 21.2591 3.37423 21.3376C3.37423 21.4161 3.48898 21.7121 3.62184 21.9959C4.09895 22.9743 5.09544 23.7715 6.39993 24.2184C7.65008 24.6472 7.87957 24.6713 10.8509 24.7015L13.5203 24.7317V25.2088V25.686H11.7206C9.71553 25.686 9.49811 25.7162 9.03912 26.0664C8.89418 26.1751 8.70092 26.3865 8.59825 26.5315C8.49558 26.6885 7.89165 28.2044 7.18505 30.0947C6.50864 31.9065 5.92887 33.4163 5.88659 33.4525C5.85035 33.4888 4.79951 33.7726 3.55541 34.0806C2.31131 34.3886 1.18799 34.6966 1.06116 34.757C0.698803 34.9382 0.372679 35.2704 0.191499 35.6388L0.0223981 35.983L0.00428007 38.6403C-0.0077986 40.6212 0.00428007 41.3641 0.0586341 41.5694C0.161303 41.9257 0.644449 42.4209 0.994731 42.5236C1.15175 42.5719 1.68321 42.5961 2.46229 42.5961H3.67619L3.76678 42.8135C3.92381 43.1879 4.38884 43.7919 4.76327 44.0999C6.52072 45.5614 9.15991 45.199 10.404 43.3329C10.555 43.1034 10.706 42.8497 10.7362 42.7591L10.8026 42.5961H15.4529H20.1032L20.1938 42.8135C20.3508 43.1879 20.8158 43.7919 21.1903 44.0999C22.9477 45.5614 25.5869 45.199 26.831 43.3329C26.982 43.1034 27.133 42.8497 27.1632 42.7591L27.2296 42.5961H27.9604C28.365 42.5961 28.8059 42.5659 28.9448 42.5236C29.295 42.4209 29.7782 41.9197 29.8748 41.5694C29.9352 41.358 29.9473 39.6791 29.9352 34.2014L29.9171 27.1052L29.754 26.7912C29.5306 26.3744 29.2165 26.0664 28.8179 25.8853L28.4979 25.7403V25.227V24.7197H29.5547C30.5995 24.7197 30.6177 24.7197 30.7626 24.5687C30.9619 24.3754 30.9619 24.0976 30.7626 23.9044C30.6297 23.7654 30.5693 23.7534 30.0439 23.7534H29.4702L29.4521 22.0442L29.434 20.3411L29.2709 20.0331C29.0293 19.5741 28.8481 19.3869 28.4254 19.1635C28.063 18.9702 28.0087 18.9581 27.3081 18.934L26.5653 18.9098V18.0885C26.5653 17.1222 26.5049 16.8927 26.1606 16.5062C25.7922 16.0955 25.5446 16.023 24.4998 16.023H23.6664V15.2077C23.6664 14.4166 23.6603 14.3803 23.5154 14.2414L23.3705 14.0904H21.2507H19.1308L18.9859 14.2414ZM22.7001 15.5399V16.023H21.2507H19.8012V15.5399V15.0567H21.2507H22.7001V15.5399ZM25.448 17.1403C25.5929 17.2792 25.599 17.3154 25.599 18.1006V18.9159L23.4127 18.934L21.2205 18.9521L20.9185 19.1031C20.532 19.2903 20.1696 19.6527 19.9824 20.0392C19.8314 20.3351 19.8314 20.3713 19.8133 22.0442L19.7952 23.7534H18.3457H16.9023V20.5223V17.2852L17.0533 17.1403L17.1983 16.9893H21.2507H25.303L25.448 17.1403ZM15.936 19.8882V20.8545H10.2832H4.63645L4.75724 20.6854C5.20415 20.0513 6.17648 19.4836 7.2998 19.1937C8.22381 18.9521 8.61637 18.934 12.3306 18.9279L15.936 18.9219V19.8882ZM28.1174 20.1056C28.4193 20.3532 28.5039 20.5767 28.3469 20.7277C28.1415 20.927 27.4651 21.2591 26.8854 21.4584C25.1219 22.0442 22.9537 21.8872 21.4318 21.0538C20.7675 20.6914 20.7071 20.5827 20.991 20.2445C21.299 19.8822 21.2205 19.8882 24.7052 19.9063L27.8818 19.9184L28.1174 20.1056ZM15.936 22.7931V23.7594L12.1192 23.7353C8.44123 23.7171 8.27213 23.7111 7.70443 23.5843C6.29727 23.2642 5.27662 22.7146 4.7512 21.9838L4.63645 21.8208H10.2832H15.936V22.7931ZM21.3171 22.0805C22.3075 22.5576 23.2859 22.7569 24.6327 22.7569C25.9855 22.7569 26.9397 22.5576 27.9966 22.0624L28.4979 21.8268V22.7931V23.7534H24.6327H20.7675V22.781C20.7675 22.2496 20.7856 21.8208 20.8158 21.8329C20.84 21.8449 21.0634 21.9597 21.3171 22.0805ZM20.7675 25.2028V25.686H17.6271H14.4866V25.2028V24.7197H17.6271H20.7675V25.2028ZM27.5316 25.2028V25.686H24.6327H21.7338V25.2028V24.7197H24.6327H27.5316V25.2028ZM28.5341 26.8093C28.6247 26.8757 28.7575 27.0086 28.824 27.0992C28.9508 27.2622 28.9508 27.3287 28.9689 31.7917L28.981 36.3152H28.1657C27.3745 36.3152 27.3383 36.3212 27.1994 36.4662C27.0665 36.593 27.0484 36.6655 27.0484 37.0399C27.0484 37.4143 27.0665 37.4868 27.1994 37.6136C27.29 37.7103 27.4168 37.7646 27.5316 37.7646C27.7309 37.7646 28.0147 37.5351 28.0147 37.3721C28.0147 37.2996 28.1053 37.2815 28.4979 37.2815H28.981V38.2478V39.2141H27.9966H27.0122L26.7585 38.8517C26.0882 37.9035 24.8682 37.2815 23.6664 37.2815C22.4646 37.2815 21.2446 37.9035 20.5743 38.8517L20.3206 39.2141H18.3699H16.4192V34.286C16.4192 30.6503 16.4011 29.2914 16.3467 29.1163C16.3105 28.9834 16.1595 28.7419 16.0146 28.5848C15.5737 28.0896 15.6462 28.1017 12.089 28.1017C10.3013 28.1017 8.99081 28.0775 8.99081 28.0473C8.99081 27.9084 9.35921 27.1052 9.48603 26.9723C9.788 26.6402 9.26862 26.6583 19.1792 26.6704C28.3529 26.6824 28.371 26.6824 28.5341 26.8093ZM15.3019 29.219L15.4529 29.3639V31.3931V33.4163H11.2254C8.90022 33.4163 6.99783 33.3982 6.99783 33.374C6.99783 33.3559 7.36019 32.3775 7.79502 31.1999L8.59825 29.068H11.8776H15.157L15.3019 29.219ZM15.4529 36.7983V39.2141H13.019H10.5852L10.3315 38.8517C9.64306 37.8794 8.33856 37.2392 7.16089 37.2936L6.75626 37.3117V35.8441V34.3826H11.1046H15.4529V36.7983ZM5.78996 36.0253V37.5532L5.46988 37.7163C4.97465 37.976 4.47943 38.4048 4.17142 38.8275L3.88757 39.2141H2.42605H0.958495V38.2478V37.2815H1.44164H1.92479V37.6136C1.92479 37.8914 1.94895 37.976 2.07577 38.0968C2.26903 38.2961 2.54684 38.2961 2.7401 38.0968C2.88504 37.9579 2.89108 37.9096 2.89108 37.2815C2.89108 36.6534 2.88504 36.6051 2.7401 36.4662C2.60119 36.3212 2.56496 36.3152 1.77984 36.3152H0.958495L1.02493 36.1461C1.0974 35.9589 1.2967 35.7294 1.47184 35.6327C1.53827 35.5965 2.52872 35.3308 3.67619 35.0409C4.82367 34.751 5.7658 34.5094 5.77788 34.5094C5.78392 34.5034 5.78996 35.1919 5.78996 36.0253ZM7.93393 38.3384C9.47999 38.743 10.4402 40.3253 10.0477 41.8291C9.77592 42.8739 8.97269 43.6832 7.93393 43.9549C6.41805 44.3475 4.83575 43.3872 4.43111 41.8412C3.89361 39.7697 5.86243 37.8009 7.93393 38.3384ZM24.3609 38.3384C25.3997 38.6101 26.2029 39.4194 26.4747 40.4642C26.8672 41.968 25.907 43.5503 24.3609 43.9549C22.845 44.3475 21.2627 43.3872 20.8581 41.8412C20.3206 39.7697 22.2894 37.8009 24.3609 38.3384ZM3.45274 40.4038C3.42858 40.5306 3.40442 40.8568 3.40442 41.1285V41.6298H2.32942C1.2665 41.6298 1.25442 41.6298 1.10948 41.4788C0.970573 41.3459 0.958495 41.2856 0.958495 40.7541V40.1804H2.22675H3.50105L3.45274 40.4038ZM19.8797 40.4038C19.8556 40.5306 19.8314 40.8568 19.8314 41.1285V41.6298H15.4529H11.0744V41.1285C11.0744 40.8568 11.0502 40.5306 11.0261 40.4038L10.9777 40.1804H15.4529H19.928L19.8797 40.4038ZM28.981 40.7541C28.981 41.2856 28.9689 41.3459 28.83 41.4788C28.6972 41.6177 28.6428 41.6298 28.0932 41.6298H27.5014V41.1285C27.5014 40.8568 27.4772 40.5306 27.453 40.4038L27.4047 40.1804H28.1959H28.981V40.7541Z" fill="white"/>
<path d="M18.0196 18.1066C17.923 18.1972 17.8687 18.324 17.8687 18.4387C17.8687 18.5535 17.923 18.6803 18.0196 18.7709C18.1102 18.8675 18.2371 18.9219 18.3518 18.9219C18.4665 18.9219 18.5934 18.8675 18.684 18.7709C18.7806 18.6803 18.8349 18.5535 18.8349 18.4387C18.8349 18.324 18.7806 18.1972 18.684 18.1066C18.5934 18.0099 18.4665 17.9556 18.3518 17.9556C18.2371 17.9556 18.1102 18.0099 18.0196 18.1066Z" fill="white"/>
<path d="M18.8349 28.1798C18.539 28.2764 18.0317 28.7958 17.9411 29.1038C17.8928 29.279 17.8687 29.9372 17.8687 31.2417C17.8687 32.5462 17.8928 33.2045 17.9411 33.3797C18.0378 33.7118 18.539 34.2131 18.8712 34.3097C19.2275 34.4124 26.6559 34.4124 27.0122 34.3097C27.3444 34.2131 27.8456 33.7118 27.9423 33.3797C28.0449 33.0354 28.0449 29.4481 27.9423 29.1159C27.906 28.983 27.755 28.7415 27.6101 28.5844C27.1571 28.0832 27.3323 28.1013 22.9175 28.1073C20.2783 28.1134 18.9799 28.1375 18.8349 28.1798ZM22.7001 31.2417V33.4159H20.9185H19.1309L18.9859 33.2649L18.8349 33.12V31.2417V29.3635L18.9859 29.2186L19.1309 29.0676H20.9185H22.7001V31.2417ZM26.8975 29.2186L27.0484 29.3635V31.2417V33.12L26.8975 33.2649L26.7525 33.4159H25.2064H23.6664V31.2417V29.0676H25.2064H26.7525L26.8975 29.2186Z" fill="white"/>
<path d="M12.2218 35.4996C12.1252 35.5902 12.0708 35.717 12.0708 35.8318C12.0708 35.9465 12.1252 36.0734 12.2218 36.164C12.3607 36.3089 12.3909 36.3149 13.2787 36.3149C14.1664 36.3149 14.1966 36.3089 14.3356 36.164C14.4322 36.0734 14.4865 35.9465 14.4865 35.8318C14.4865 35.717 14.4322 35.5902 14.3356 35.4996C14.1966 35.3547 14.1664 35.3486 13.2787 35.3486C12.3909 35.3486 12.3607 35.3547 12.2218 35.4996Z" fill="white"/>
<path d="M6.91344 39.3524C6.57524 39.6907 6.7685 40.1013 7.29996 40.1859C7.87974 40.2765 8.17566 40.6026 8.17566 41.1461C8.17566 41.7319 7.82538 42.0822 7.23957 42.0822C6.69603 42.0822 6.3699 41.7863 6.27931 41.2065C6.19476 40.6751 5.78409 40.4818 5.44589 40.82C5.30094 40.9649 5.2949 41.0012 5.33114 41.3394C5.37341 41.7621 5.65726 42.3419 5.92903 42.5714C6.02566 42.656 6.24912 42.7949 6.41822 42.8855C6.67791 43.0183 6.80474 43.0425 7.23957 43.0425C7.6744 43.0425 7.80123 43.0183 8.06092 42.8855C8.51387 42.6439 8.70713 42.4627 8.93662 42.04C9.12384 41.6897 9.14196 41.6172 9.13592 41.1461C9.13592 40.7113 9.11176 40.5845 8.9789 40.3248C8.88831 40.1557 8.7494 39.9322 8.66485 39.8356C8.43536 39.5638 7.85558 39.28 7.43283 39.2377C7.09462 39.2015 7.05839 39.2075 6.91344 39.3524Z" fill="white"/>
<path d="M23.2134 39.2679C22.6578 39.4129 22.1686 39.8115 21.9149 40.3309C21.8002 40.5785 21.77 40.7295 21.77 41.1462C21.7639 41.6172 21.7821 41.6897 21.9693 42.04C22.2894 42.6319 22.8148 42.9882 23.4791 43.0546C23.8113 43.0908 23.8475 43.0848 23.9925 42.9399C24.3307 42.6017 24.1374 42.191 23.6059 42.1064C23.0262 42.0158 22.7302 41.6897 22.7302 41.1462C22.7302 40.5604 23.0805 40.2101 23.6663 40.2101C24.2099 40.2101 24.536 40.506 24.6266 41.0858C24.7111 41.6172 25.1218 41.8105 25.46 41.4723C25.605 41.3274 25.611 41.2911 25.5748 40.959C25.5083 40.3007 25.152 39.7692 24.5783 39.4612C24.1857 39.2559 23.5878 39.1653 23.2134 39.2679Z" fill="white"/>
<path d="M111.436 13.7744C109.316 13.9826 107.815 14.4053 106.105 15.257C104.351 16.1339 102.597 17.6102 102.08 18.6386C101.43 19.9382 101.531 21.6353 102.339 22.9853C103.001 24.0957 104.219 25.042 105.411 25.3701C105.991 25.5278 107.026 25.5594 107.543 25.4395C107.783 25.3827 107.985 25.3385 107.998 25.3385C108.01 25.3385 107.979 25.49 107.928 25.6666C107.714 26.4489 107.853 27.7548 108.237 28.6254C108.805 29.9188 110.092 31.0796 111.36 31.4581C111.505 31.5023 111.625 31.5591 111.625 31.578C111.625 31.5969 109.013 34.2277 105.815 37.42C102.622 40.6122 99.9412 43.344 99.8529 43.4828C99.487 44.101 99.6069 44.795 100.2 45.3944C100.686 45.8927 100.894 45.9937 101.436 46C101.802 46 101.922 45.9748 102.162 45.8297C102.326 45.735 104.938 43.1673 108.25 39.8552C111.442 36.6566 114.073 34.0447 114.092 34.0447C114.111 34.0447 114.168 34.1646 114.212 34.3097C114.256 34.4611 114.376 34.7513 114.477 34.9595C115.442 36.8837 117.518 38.0761 119.492 37.83C119.783 37.7922 120.092 37.7354 120.18 37.6976C120.331 37.6408 120.344 37.6471 120.306 37.7796C120.193 38.196 120.13 38.8647 120.161 39.3126C120.312 41.3378 121.757 43.161 123.707 43.8045C124.375 44.019 125.524 44.0758 126.136 43.9244C126.861 43.7414 127.523 43.3692 128.053 42.8456C131.157 39.7669 132.514 35.0289 131.681 30.1333C131.17 27.0987 129.706 23.8812 127.719 21.4081C127.473 21.1053 127.271 20.834 127.271 20.8151C127.271 20.7962 127.366 20.6321 127.486 20.4555C127.82 19.9445 128.199 19.1496 128.312 18.7079C128.621 17.5282 127.902 17.0046 126.609 17.4714C126.255 17.5976 125.536 17.9698 125.189 18.2032C125.031 18.3105 124.886 18.3988 124.861 18.3988C124.836 18.3988 124.565 18.1969 124.262 17.9509C121.795 15.9573 118.571 14.4873 115.568 13.9889C114.187 13.7618 112.464 13.6672 111.436 13.7744ZM115.032 14.7081C116.918 15.0047 118.748 15.5914 120.458 16.462C121.196 16.8342 122.319 17.503 122.666 17.7742L122.823 17.8941L122.445 17.8499C121.751 17.7616 120.155 17.7995 119.448 17.9193C116.275 18.4682 112.786 20.3104 109.827 22.9917C109.518 23.2756 109.247 23.509 109.228 23.509C109.209 23.509 107.947 22.2598 106.42 20.7268L103.645 17.9509L103.979 17.6481C105.72 16.0645 108.326 14.9542 111.057 14.6135C111.77 14.5315 114.25 14.5883 115.032 14.7081ZM127.587 18.2411C127.587 18.4808 127.315 19.1622 127.019 19.6858C126.867 19.9508 126.729 20.1653 126.71 20.1653C126.684 20.1653 126.401 19.894 126.072 19.566C125.587 19.0739 125.492 18.954 125.568 18.9035C126.167 18.5061 127.107 18.0897 127.416 18.0834C127.555 18.0834 127.587 18.1086 127.587 18.2411ZM108.597 24.0894C108.597 24.1714 108.029 24.4679 107.644 24.5878C107.171 24.7329 106.256 24.7455 105.726 24.613C104.585 24.3228 103.436 23.4017 102.932 22.3734C102.553 21.6037 102.458 21.1684 102.49 20.3609C102.522 19.648 102.622 19.2821 102.906 18.8026L103.077 18.525L105.834 21.282C107.354 22.8024 108.597 24.0642 108.597 24.0894ZM122.666 18.7079C123.013 18.7773 123.53 18.9288 123.814 19.0423C124.363 19.2631 125.189 19.7678 125.189 19.8814C125.189 19.9129 122.987 22.1463 120.3 24.8338L115.411 29.7232L112.603 26.9158L109.789 24.1083L110.035 23.8875C111.373 22.6951 112.124 22.1021 113.202 21.3829C115.322 19.976 117.663 19.0108 119.751 18.689C120.596 18.5565 121.909 18.5628 122.666 18.7079ZM126.117 20.8719C126.262 21.0927 126.432 21.3829 126.501 21.5217C126.691 21.9002 126.93 22.7267 127.019 23.2629C127.132 23.9758 127.069 25.6351 126.899 26.5057C126.331 29.332 124.527 32.6253 122.047 35.357L121.568 35.8806L118.773 33.0858L115.978 30.291L120.88 25.389C123.58 22.6888 125.801 20.4807 125.82 20.4807C125.839 20.4807 125.972 20.6574 126.117 20.8719ZM128.142 23.3702C129.656 25.7297 130.545 28.0324 130.962 30.6821C131.101 31.5654 131.151 33.4706 131.063 34.3917C130.779 37.2055 129.668 39.8804 128.022 41.6911L127.719 42.0254L124.931 39.2432L122.142 36.4547L122.886 35.6156C125.732 32.3918 127.467 28.8589 127.845 25.5278C127.915 24.8969 127.889 23.4522 127.801 23.0484C127.776 22.9538 127.776 22.8781 127.795 22.8781C127.814 22.8781 127.971 23.0989 128.142 23.3702ZM114.78 30.2721C114.78 30.3541 113.89 30.7578 113.537 30.8272C113.001 30.9408 112.136 30.8714 111.575 30.6821C110.9 30.4487 110.464 30.1648 109.89 29.597C109.045 28.7579 108.641 27.8053 108.641 26.6634C108.641 25.982 108.748 25.553 109.045 25.0294L109.24 24.6887L112.01 27.4583C113.53 28.9787 114.78 30.2468 114.78 30.2721ZM118.205 33.6536C120.344 35.7923 120.95 36.4358 120.887 36.4863C120.672 36.6566 120.085 36.9026 119.675 36.991C118.451 37.2496 117.076 36.7891 116.073 35.7797C115.795 35.5021 115.474 35.1109 115.36 34.9154C114.855 34.0637 114.666 32.9344 114.868 32.0638C114.963 31.66 115.316 30.8903 115.404 30.8903C115.423 30.8903 116.685 32.1332 118.205 33.6536ZM114.124 31.66C114.105 31.742 114.048 32.0827 114.01 32.4171L113.934 33.0353L107.84 39.1234C101.865 45.0978 101.746 45.2114 101.506 45.2114C100.875 45.2114 100.276 44.4228 100.528 43.9307C100.566 43.855 103.31 41.0728 106.635 37.748L112.666 31.7105L112.982 31.7042C113.152 31.7042 113.455 31.66 113.644 31.6158C114.155 31.5023 114.168 31.5023 114.124 31.66ZM124.394 39.8426L127.164 42.6122L126.867 42.7825C125.845 43.3818 124.577 43.3755 123.36 42.7762C122.874 42.5301 122.672 42.385 122.256 41.9686C121.694 41.3945 121.41 40.9655 121.164 40.2779C121.019 39.8804 121 39.7164 120.994 39.0603C120.994 38.4862 121.019 38.2212 121.107 37.9562C121.234 37.5966 121.511 37.073 121.581 37.073C121.606 37.073 122.874 38.3158 124.394 39.8426Z" fill="white"/>
<path d="M449.134 14.4997C448.375 14.7711 447.838 15.5053 447.838 16.2703C447.838 16.881 448.184 17.245 448.863 17.3437L449.152 17.3869V19.8793V22.3717H448.789C447.542 22.3717 446.345 23.3711 446.074 24.642C445.975 25.0985 445.975 41.225 446.074 41.6938C446.111 41.8728 446.21 42.1689 446.296 42.3478C446.481 42.7426 447.036 43.3596 447.407 43.5755C447.727 43.7606 448.35 43.9641 448.603 43.9641H448.782V44.5934C448.782 45.3707 448.9 45.6422 449.338 45.8643C449.584 45.9877 449.702 46 450.547 46C451.404 46 451.497 45.9877 451.75 45.8581C452.157 45.6422 452.262 45.4139 452.299 44.6428L452.33 43.995L453.89 43.9765L455.445 43.9641V44.5009C455.445 45.2103 455.519 45.4448 455.815 45.71C456.118 45.9877 456.259 46.0123 457.395 45.9877C458.246 45.9692 458.326 45.9568 458.524 45.8211L458.727 45.673L459.017 45.8211L459.301 45.9692L467.71 45.9877C473.33 45.9938 476.205 45.9815 476.359 45.9383C476.754 45.8334 477.161 45.5065 477.371 45.1363L477.562 44.797L477.581 42.5637L477.599 40.3243L477.445 40.17C477.247 39.9726 477.013 39.9726 476.822 40.17C476.674 40.3119 476.667 40.3551 476.667 41.0461V41.774L476.303 41.8481C474.983 42.0949 473.694 43.3781 473.441 44.6921L473.367 45.0746H467.845H462.324L462.219 44.6428C462.052 43.9456 461.769 43.4336 461.244 42.9092C460.991 42.6563 460.627 42.3601 460.442 42.2553C460.066 42.0393 459.393 41.8049 459.165 41.8049H459.023V39.4297V37.0546H459.165C459.393 37.0546 460.066 36.8201 460.442 36.6042C460.627 36.4993 460.991 36.2032 461.244 35.9503C461.769 35.4259 462.052 34.9138 462.219 34.2167L462.324 33.7848H467.845H473.367L473.441 34.1488C473.688 35.4752 474.977 36.7646 476.303 37.0114L476.667 37.0854V37.9244C476.667 38.6832 476.68 38.782 476.797 38.93C476.97 39.1521 477.291 39.1521 477.463 38.93C477.587 38.7696 477.593 38.6956 477.593 36.5363C477.593 35.2099 477.568 34.2167 477.531 34.081C477.346 33.4332 476.741 32.9397 476.051 32.878L475.68 32.8409V30.2684C475.68 28.1029 475.668 27.6464 475.582 27.3626C475.378 26.6717 474.854 26.0794 474.15 25.7463C473.756 25.5612 473.694 25.5489 472.83 25.5304L471.917 25.5057V23.7536V22.0015H472.121C472.386 22.0015 472.83 21.7733 472.991 21.5512C473.194 21.2797 473.2 20.6751 473.015 20.2618C472.818 19.8423 472.534 19.5153 472.17 19.2994L471.886 19.1328L467.821 19.1143C463.268 19.0958 463.404 19.0835 462.898 19.5277C462.75 19.6634 462.546 19.9163 462.447 20.0952C462.287 20.3852 462.262 20.4962 462.262 20.9034C462.262 21.2797 462.287 21.4093 462.392 21.5512C462.552 21.7671 462.996 22.0015 463.262 22.0015H463.465V23.7536V25.5057L462.713 25.5304C462.293 25.5489 461.911 25.5797 461.855 25.6044C461.762 25.6414 461.75 25.5735 461.725 25.0738C461.707 24.5618 461.676 24.4384 461.473 24.0127C461.01 23.0318 460.01 22.3717 458.98 22.3717H458.653V19.8855V17.3993L459.023 17.3252C459.69 17.1833 460.01 16.7391 459.93 16.0667C459.881 15.6534 459.634 15.2153 459.27 14.8884C458.74 14.4133 458.758 14.4133 455.291 14.4133C452.311 14.4133 452.249 14.4133 452.089 14.5429C451.972 14.6354 451.929 14.728 451.929 14.876C451.929 15.0241 451.972 15.1166 452.089 15.2092C452.249 15.3387 452.311 15.3387 455.242 15.3387C458.505 15.3387 458.487 15.3387 458.795 15.7027C458.992 15.9371 459.079 16.3135 458.955 16.3937C458.906 16.4245 456.617 16.4492 453.866 16.4492C449.8 16.4492 448.844 16.4368 448.795 16.369C448.708 16.2641 448.801 15.9063 448.967 15.6904C449.177 15.4251 449.455 15.3387 450.103 15.3387C450.658 15.3387 450.713 15.3264 450.849 15.1845C450.935 15.1043 451.003 14.9624 451.003 14.876C451.003 14.7897 450.935 14.6478 450.849 14.5676C450.707 14.4195 450.664 14.4133 450.035 14.4133C449.64 14.4195 449.276 14.4503 449.134 14.4997ZM457.715 19.8546L457.697 22.3408L453.89 22.3593L450.078 22.3717V19.8731V17.3746H453.903H457.728L457.715 19.8546ZM471.781 20.1507C472.034 20.305 472.226 20.6196 472.226 20.8726V21.0761H467.691H463.157V20.9034C463.157 20.6628 463.354 20.3297 463.589 20.1631L463.792 20.0274H467.685C471.461 20.0274 471.584 20.0335 471.781 20.1507ZM470.992 23.7598V25.518H467.691H464.391V23.803C464.391 22.8591 464.409 22.0632 464.434 22.0447C464.452 22.02 465.939 22.0015 467.734 22.0015H470.992V23.7598ZM451.127 27.4613L446.962 31.6256L446.944 28.3127C446.932 24.642 446.932 24.5988 447.32 24.0867C447.542 23.7906 448.011 23.4513 448.313 23.3649C448.418 23.3341 450.029 23.3032 451.898 23.3032L455.291 23.2971L451.127 27.4613ZM459.714 23.4698C460.084 23.6549 460.455 24.0251 460.64 24.3952C460.757 24.642 460.788 24.8024 460.8 25.444L460.825 26.2028L460.596 26.4557C460.467 26.5915 460.294 26.8629 460.202 27.0542L460.041 27.3996L460.023 30.1203L460.004 32.8409L459.64 32.878C459.196 32.915 458.715 33.1617 458.462 33.4825C458.172 33.8527 458.098 34.1488 458.098 34.9508V35.6665L454.415 39.3495L450.726 43.0387H449.584C448.455 43.0387 448.437 43.0387 448.073 42.866C447.653 42.6624 447.289 42.2984 447.092 41.8728C446.962 41.5951 446.962 41.5334 446.944 37.2705L446.925 32.9582L451.756 28.1214L456.586 23.2909L458.005 23.3094C459.344 23.3279 459.443 23.3341 459.714 23.4698ZM473.657 26.5421C474.046 26.6717 474.434 27.0233 474.607 27.3935C474.755 27.7081 474.755 27.7081 474.755 30.2807V32.8595H472.54H470.332L470.295 32.5016C470.258 32.0513 470.091 31.7181 469.746 31.3973C469.326 31.0148 469.153 30.9778 467.815 30.9778C466.747 30.9778 466.618 30.9902 466.365 31.1074C465.797 31.3788 465.378 31.9958 465.378 32.5633V32.8595H463.157H460.936V30.2807V27.7081L461.084 27.3996C461.269 27.0048 461.571 26.721 461.96 26.5668C462.25 26.4557 462.49 26.4496 467.821 26.4434C472.688 26.4434 473.41 26.4557 473.657 26.5421ZM468.913 31.9587C469.203 32.076 469.338 32.261 469.369 32.5818L469.406 32.8595H467.852H466.303V32.6188C466.303 32.3412 466.482 32.0821 466.76 31.9587C467.025 31.8415 468.641 31.8415 468.913 31.9587ZM461.343 33.9823C461.158 34.92 460.158 35.9194 459.227 36.1045L459.023 36.1415V35.2346C459.023 33.8589 459.091 33.791 460.498 33.7848H461.386L461.343 33.9823ZM476.433 34.0193L476.637 34.2167L476.655 35.1853L476.674 36.1477L476.47 36.1045C476.057 36.0305 475.403 35.648 475.07 35.2963C474.749 34.957 474.422 34.3648 474.348 33.9823L474.305 33.7787L475.267 33.7972L476.236 33.8157L476.433 34.0193ZM458.098 40.0158V43.0387H455.063H452.021L455.044 40.0158C456.704 38.3501 458.073 36.9929 458.079 36.9929C458.092 36.9929 458.098 38.3501 458.098 40.0158ZM459.813 42.9771C460.516 43.304 461.201 44.1492 461.343 44.871L461.386 45.0746H460.504C459.097 45.0746 459.023 45.0006 459.023 43.6248V42.7118L459.227 42.755C459.332 42.7796 459.597 42.8783 459.813 42.9771ZM476.655 43.6865L476.637 44.6428L476.433 44.8402L476.236 45.0438L475.267 45.0623L474.305 45.0808L474.348 44.8772C474.422 44.507 474.743 43.9086 475.039 43.594C475.366 43.2423 475.606 43.0819 476.106 42.8783C476.704 42.6254 476.68 42.5884 476.655 43.6865ZM451.361 44.5009L451.343 45.0438H450.541H449.739L449.72 44.5009L449.702 43.9641H450.541H451.38L451.361 44.5009ZM458.067 44.5194V45.0438H457.234H456.401L456.383 44.5872C456.371 44.3343 456.377 44.0937 456.395 44.0443C456.426 43.9765 456.599 43.9641 457.247 43.9765L458.067 43.995V44.5194Z" fill="white"/>
<path d="M572.453 14.1012C572.386 14.1193 572.145 14.1737 571.909 14.2281C570.894 14.4638 570.325 14.8325 569.056 16.0836L568.071 17.0445L565.098 15.6182C563.46 14.8264 562.07 14.1858 562.009 14.1858C561.81 14.1858 561.64 14.3127 560.957 14.9896C560.534 15.4066 560.25 15.7391 560.208 15.866C560.081 16.2407 560.19 16.3434 562.716 18.2714L565.061 20.0665L563.593 21.5351L562.118 22.9978L560.963 22.889C560.329 22.8285 559.731 22.7983 559.634 22.8164C559.434 22.8527 557.911 24.3032 557.754 24.6054C557.639 24.823 557.694 25.1252 557.875 25.2944C557.96 25.373 558.334 25.512 558.872 25.6571C559.35 25.79 559.749 25.9049 559.761 25.917C559.773 25.929 559.731 26.1587 559.67 26.4246C559.368 27.718 559.253 29.2774 559.362 30.5043C559.398 30.9213 559.446 31.435 559.465 31.6526C559.495 32.0213 559.483 32.0757 559.247 32.5834C558.346 34.5174 557.79 36.6328 557.7 38.452C557.561 41.2564 558.709 43.4442 560.824 44.3992C562.988 45.3783 565.871 45.1607 569.389 43.7464C569.733 43.6074 570.15 43.4261 570.319 43.3415C570.567 43.2146 570.688 43.1904 570.936 43.2146C572.955 43.3899 573.245 43.3959 574.145 43.3294C576.031 43.1783 577.53 42.7794 579.168 41.9816C579.984 41.5827 581.011 40.9602 581.174 40.7668C581.217 40.7124 581.271 40.5734 581.289 40.4525C581.319 40.2652 581.295 40.2108 581.108 40.0234C580.781 39.697 580.636 39.7273 579.808 40.2591C578.757 40.936 577.131 41.6009 575.801 41.891L575.644 41.9272L575.614 41.0025C575.584 40.2531 575.559 40.0174 575.451 39.7333C575.275 39.2861 574.919 38.8388 574.514 38.5668C573.946 38.1921 573.801 38.1679 571.758 38.1256C569.957 38.0894 569.908 38.0833 569.685 37.9443C569.34 37.7328 569.165 37.4124 569.099 36.8685C569.026 36.3125 568.875 35.98 568.543 35.6476C568.162 35.2729 567.787 35.1581 566.959 35.1581C566.149 35.1581 565.774 35.0614 565.43 34.7652C564.529 33.9976 564.747 32.5713 565.835 32.0817C565.986 32.0152 566.228 31.9548 566.379 31.9548C566.699 31.9548 567.134 31.7554 567.297 31.5317C567.358 31.4471 567.436 31.2175 567.467 31.0241C567.533 30.6131 567.642 30.4257 567.908 30.2565C568.089 30.1416 568.198 30.1416 570.156 30.1537C572.133 30.1719 572.223 30.1779 572.459 30.3048C572.791 30.4801 573.075 30.7823 573.227 31.1087C573.347 31.3565 573.36 31.5197 573.39 33.1152L573.42 34.8438L573.601 35.1037C573.704 35.2487 573.903 35.4482 574.042 35.5449C574.278 35.7141 574.351 35.7262 575.046 35.7685C575.838 35.8169 576.122 35.9075 576.394 36.1976C576.659 36.4817 576.714 36.7295 576.714 37.6602C576.714 38.1438 576.738 38.6031 576.768 38.6817C576.931 39.1108 577.427 39.2256 577.747 38.9113L577.923 38.7361V37.7146C577.923 36.5603 577.862 36.246 577.536 35.7322C577.185 35.1943 576.678 34.8196 576.103 34.6746C575.958 34.6383 575.566 34.5899 575.233 34.5658L574.629 34.5235L574.592 32.8916C574.562 31.6224 574.532 31.1933 574.453 30.9515C574.127 29.9241 573.269 29.1625 572.241 28.9933C571.994 28.951 571.099 28.9329 569.824 28.945L567.799 28.9631L567.455 29.1323C566.971 29.368 566.536 29.8636 566.385 30.3411L566.276 30.7098L565.835 30.8186C563.629 31.3625 562.916 34.0581 564.566 35.6053C565.146 36.1493 565.823 36.3669 566.935 36.3669C567.708 36.3669 567.793 36.4333 567.914 37.1344C568.077 38.0954 568.53 38.73 569.328 39.1047L569.733 39.2981L571.613 39.3284L573.492 39.3586L573.789 39.5399C574.012 39.6789 574.127 39.8058 574.254 40.0476C574.411 40.3619 574.417 40.4163 574.417 41.2382V42.0965L573.952 42.1448C573.384 42.1932 572.042 42.1327 571.305 42.0239C567.14 41.3893 563.647 38.8267 561.81 35.0674C561.417 34.2575 561 33.1031 560.873 32.4685L560.806 32.1059L561.254 31.29C561.937 30.0631 562.559 29.0779 562.601 29.1807C562.62 29.229 562.698 29.507 562.777 29.7971C562.934 30.3713 563.03 30.5224 563.284 30.6131C563.599 30.7158 563.78 30.5949 564.674 29.7004L565.533 28.8301V28.5037C565.533 28.3224 565.49 27.7422 565.442 27.2104L565.345 26.2494L566.82 24.7747L568.289 23.306L570.041 25.5906C571.002 26.8477 571.855 27.9356 571.933 28.0081C572.102 28.1713 572.405 28.1895 572.652 28.0625C572.743 28.0142 573.106 27.6757 573.468 27.3131C574.109 26.6483 574.163 26.5576 574.115 26.2131C574.109 26.1648 573.48 24.823 572.719 23.2335C571.957 21.6439 571.335 20.3264 571.335 20.3022C571.335 20.278 571.613 19.9819 571.957 19.6494C572.616 18.9907 573.468 18.4165 574.955 17.6006L575.705 17.1896L576.073 17.2621C577.584 17.5703 579.434 18.4588 580.884 19.5648C581.398 19.9577 582.456 20.9368 582.456 21.0214C582.456 21.0516 582.093 21.0758 581.652 21.0758C580.739 21.0758 580.334 21.1544 579.736 21.4566C578.739 21.9522 577.929 23.2335 577.923 24.3274C577.923 24.6598 577.723 24.8835 577.427 24.8835C577.119 24.8835 576.557 25.0466 576.261 25.2159C575.892 25.4335 575.463 25.917 575.275 26.3219C575.136 26.6181 575.112 26.7631 575.094 27.3615C575.07 28.129 575.142 28.5037 575.408 28.957C575.717 29.4889 576.363 29.9362 577.004 30.0752C577.463 30.1719 582.274 30.1658 582.486 30.0691C582.764 29.9422 582.891 29.5735 582.752 29.2774C582.607 28.9631 582.619 28.9631 579.754 28.9329L577.089 28.9026L576.823 28.7213C576.412 28.4312 576.291 28.1592 576.291 27.5246C576.291 26.5637 576.641 26.1768 577.62 26.062C578.491 25.9653 579.131 25.2582 579.131 24.3999C579.131 23.6445 579.657 22.8406 580.395 22.478C580.721 22.3208 580.775 22.3148 581.972 22.2846C582.655 22.2665 583.253 22.2302 583.308 22.206C583.531 22.0972 584.662 24.1763 585.115 25.5241C586.148 28.6307 585.955 31.9427 584.565 34.9224C584.365 35.3394 584.208 35.7564 584.208 35.8471C584.208 35.9619 584.281 36.0888 584.42 36.2278C584.607 36.4152 584.662 36.4394 584.855 36.4092C585.169 36.3548 585.278 36.2278 585.604 35.5509C586.203 34.3059 586.608 32.9944 586.849 31.5015C586.982 30.6675 586.995 28.7818 586.874 27.7966C586.807 27.2829 586.801 27.0653 586.849 26.9505C586.886 26.8598 587.043 26.5093 587.194 26.1648C588.475 23.2637 588.91 20.3566 588.379 18.2654C587.665 15.4671 585.32 13.9259 582.026 14.0891C579.887 14.1918 577.59 14.8808 575.034 16.1923C574.532 16.4522 574.103 16.6638 574.091 16.6638C574.079 16.6638 574.109 16.5066 574.157 16.3132C574.26 15.8962 574.278 14.7055 574.188 14.4759C574.073 14.1918 573.873 14.1132 573.196 14.0891C572.852 14.083 572.519 14.083 572.453 14.1012ZM573.057 15.588C573.003 16.0473 572.864 16.5127 572.646 16.9599C572.483 17.2923 572.253 17.5643 571.238 18.5978C570.477 19.3775 570.011 19.8972 569.981 20.006C569.933 20.2176 569.993 20.3566 571.571 23.6324C572.235 25.0225 572.785 26.1829 572.785 26.2071C572.785 26.2312 572.695 26.34 572.58 26.4488L572.38 26.6422L571.988 26.1406C571.776 25.8626 571.021 24.8774 570.307 23.9467C568.688 21.8192 568.669 21.8011 568.319 21.8011H568.047L566.095 23.7532L564.143 25.7054V26.0258C564.143 26.201 564.185 26.7994 564.239 27.3494L564.33 28.3466L564.076 28.6065C563.895 28.7878 563.804 28.8483 563.774 28.7999C563.75 28.7576 563.55 28.0565 563.327 27.2406C563.103 26.4246 562.898 25.7115 562.867 25.6571C562.777 25.4878 562.626 25.4335 561.042 24.9983C560.208 24.7686 559.525 24.5752 559.513 24.5631C559.501 24.551 559.61 24.4241 559.761 24.2791L560.027 24.0192L561.205 24.128C561.858 24.1824 562.45 24.2186 562.529 24.1945C562.601 24.1763 563.538 23.2818 564.614 22.2121C566.476 20.3385 566.56 20.2478 566.56 20.0302C566.56 19.8489 566.512 19.7522 566.337 19.5648C566.21 19.4379 565.122 18.5797 563.913 17.661C562.71 16.7423 561.725 15.9748 561.725 15.9445C561.725 15.9204 561.816 15.8176 561.924 15.7149L562.118 15.5215L565.067 16.9418C567.237 17.9813 568.071 18.3561 568.228 18.3561C568.434 18.3561 568.536 18.2714 569.667 17.1594C570.779 16.0594 570.924 15.9385 571.395 15.7028C571.897 15.461 572.495 15.2858 572.894 15.2797L573.094 15.2737L573.057 15.588ZM583.392 15.3341C584.565 15.5033 585.429 15.8962 586.106 16.561C587.357 17.8 587.714 19.8731 587.134 22.5263C587.001 23.1247 586.457 24.8774 586.324 25.1131C586.299 25.1615 586.203 24.9802 586.082 24.6357C585.804 23.856 585.218 22.7197 584.662 21.8857C583.084 19.5165 580.914 17.7517 578.267 16.6879L577.494 16.3797L578.297 16.1017C580.268 15.4127 582.051 15.1467 583.392 15.3341ZM561.852 26.5093C561.876 26.5274 561.949 26.7752 562.021 27.0532L562.16 27.5549L561.592 28.4131C561.278 28.8785 560.915 29.4406 560.782 29.6581L560.546 30.051L560.528 29.507C560.51 28.8482 560.649 27.573 560.824 26.7933L560.957 26.2252L561.387 26.3461C561.622 26.4126 561.834 26.4851 561.852 26.5093ZM560.305 34.6746C561.356 37.2916 563.133 39.4795 565.496 41.0509C566.33 41.6069 567.467 42.1932 568.246 42.4712C568.591 42.5921 568.772 42.6888 568.724 42.7129C568.682 42.7371 568.24 42.8943 567.739 43.0635C564.59 44.1212 562.112 44.0305 560.516 42.8036C559.954 42.3745 559.573 41.8547 559.289 41.1294C558.999 40.4102 558.927 39.9327 558.927 38.8146C558.921 37.6482 559.035 36.9048 559.392 35.6658C559.604 34.9224 559.966 33.9251 560.009 33.9614C560.015 33.9735 560.154 34.2938 560.305 34.6746Z" fill="white"/>
<path d="M582.843 37.7566C582.534 37.8835 582.377 38.2763 582.522 38.5604C582.746 38.9956 583.362 39.0137 583.58 38.5967C583.84 38.0829 583.368 37.545 582.843 37.7566Z" fill="white"/>
<path d="M266.002 51.4193C266.293 51.8393 266.439 52.3206 266.439 52.8665C266.439 53.8444 266.128 54.6097 265.509 55.1641C264.888 55.7186 263.983 55.9958 262.793 55.9958H257.272V46.0894H262.635C263.691 46.0894 264.492 46.2951 265.038 46.7033C265.584 47.1132 265.857 47.7016 265.857 48.4669C265.857 48.8989 265.766 49.2815 265.58 49.6165C265.395 49.9499 265.153 50.2152 264.854 50.4074C265.33 50.6642 265.713 51.0009 266.004 51.4176M259.254 47.7152V49.8546H262.504C262.997 49.8546 263.346 49.7577 263.553 49.5638C263.759 49.37 263.864 49.1012 263.864 48.7577C263.864 48.0638 263.385 47.7152 262.424 47.7152H259.254ZM262.543 54.3325C263.203 54.3325 263.672 54.2084 263.949 53.9567C264.227 53.705 264.364 53.3325 264.364 52.841C264.364 52.4006 264.218 52.0502 263.927 51.79C263.636 51.5298 263.175 51.3989 262.541 51.3989H259.252V54.3308H262.541L262.543 54.3325Z" fill="white"/>
<path d="M278.767 55.9972H276.56L275.781 54.1758H270.497L269.718 55.9972H267.54L272.096 46.0908H274.21L278.767 55.9972ZM273.14 48.0058L271.278 52.351H275.002L273.14 48.0058Z" fill="white"/>
<path d="M288.577 53.3289L288.511 46.0908H290.492V55.9972H288.339L282.594 48.732L282.66 55.9972H280.677V46.0908H282.793L288.577 53.3289Z" fill="white"/>
<path d="M295.371 55.5025C294.553 55.0569 293.917 54.4447 293.463 53.6657C293.009 52.8851 292.783 52.0178 292.783 51.0569C292.783 50.096 293.012 49.2525 293.47 48.4668C293.927 47.6845 294.572 47.062 295.405 46.6046C296.237 46.1471 297.187 45.9175 298.252 45.9175C299.317 45.9175 300.174 46.108 300.954 46.4855C301.733 46.8648 302.361 47.3699 302.837 48.0042L301.16 49.2321C300.886 48.8103 300.492 48.4685 299.978 48.2083C299.463 47.9498 298.888 47.8188 298.254 47.8188C297.619 47.8188 297.007 47.9651 296.497 48.2542C295.987 48.545 295.589 48.9345 295.308 49.4226C295.028 49.9107 294.886 50.4515 294.886 51.0399C294.886 51.6283 295.026 52.1862 295.303 52.6777C295.58 53.1708 295.971 53.5603 296.478 53.8409C296.985 54.1215 297.563 54.2627 298.215 54.2627C298.929 54.2627 299.551 54.1062 300.084 53.7933C300.616 53.4821 300.994 53.113 301.213 52.6913L302.956 53.7746C302.499 54.4974 301.866 55.0756 301.06 55.511C300.255 55.948 299.301 56.164 298.201 56.164C297.101 56.164 296.194 55.9429 295.375 55.4974" fill="white"/>
<path d="M307.092 55.5142C306.25 55.0771 305.597 54.4734 305.13 53.6979C304.664 52.9241 304.431 52.038 304.431 51.0431C304.431 50.0482 304.66 49.203 305.118 48.4292C305.575 47.6537 306.223 47.0449 307.058 46.5993C307.895 46.1537 308.859 45.9326 309.951 45.9326C311.043 45.9326 311.98 46.152 312.817 46.5942C313.653 47.0347 314.303 47.6384 314.766 48.4105C315.228 49.1809 315.46 50.0363 315.46 50.9802C315.46 52.0023 315.22 52.9071 314.74 53.6945C314.259 54.4836 313.604 55.0924 312.772 55.5244C311.941 55.9564 311.004 56.1724 309.966 56.1724C308.929 56.1724 307.934 55.9547 307.094 55.5193M311.721 53.8033C312.24 53.521 312.643 53.135 312.929 52.6418C313.215 52.1469 313.359 51.6027 313.359 51.004C313.359 50.4054 313.211 49.8935 312.917 49.4122C312.623 48.9309 312.218 48.5534 311.701 48.2761C311.186 47.9989 310.602 47.8612 309.951 47.8612C309.3 47.8612 308.711 47.9972 308.187 48.271C307.662 48.5449 307.257 48.9156 306.965 49.3867C306.674 49.8578 306.529 50.3799 306.529 50.9513C306.529 51.5772 306.672 52.1384 306.958 52.635C307.244 53.1333 307.647 53.521 308.165 53.8033C308.686 54.0856 309.281 54.2268 309.949 54.2268C310.618 54.2268 311.199 54.0856 311.72 53.8033" fill="white"/>
<path d="M325.112 55.9958L322.92 52.2322H319.961V55.9958H317.888V46.0894H323.447C324.531 46.0894 325.412 46.3257 326.09 46.7968C326.767 47.2679 327.107 48.0366 327.107 49.1012C327.107 49.8308 326.92 50.4431 326.546 50.9312C326.172 51.4193 325.669 51.7747 325.034 51.9941L327.556 55.9958H325.112ZM319.961 47.9142V50.5298H323.342C323.844 50.5298 324.25 50.4244 324.556 50.2118C324.864 50.0009 325.019 49.6693 325.019 49.222C325.019 48.3513 324.456 47.9142 323.328 47.9142H319.959H319.961Z" fill="white"/>
<path d="M339.101 51.4193C339.391 51.8393 339.538 52.3206 339.538 52.8665C339.538 53.8444 339.228 54.6097 338.607 55.1641C337.987 55.7186 337.082 55.9958 335.891 55.9958H330.371V46.0894H335.733C336.789 46.0894 337.59 46.2951 338.136 46.7033C338.682 47.1132 338.956 47.7016 338.956 48.4669C338.956 48.8989 338.863 49.2815 338.679 49.6165C338.495 49.9499 338.252 50.2152 337.953 50.4074C338.429 50.6642 338.812 51.0009 339.102 51.4176M332.352 47.7152V49.8546H335.601C336.094 49.8546 336.444 49.7577 336.652 49.5638C336.857 49.37 336.963 49.1012 336.963 48.7577C336.963 48.0638 336.483 47.7152 335.522 47.7152H332.352ZM335.641 54.3325C336.301 54.3325 336.771 54.2084 337.048 53.9567C337.325 53.705 337.463 53.3325 337.463 52.841C337.463 52.4006 337.317 52.0502 337.026 51.79C336.735 51.5298 336.274 51.3989 335.64 51.3989H332.351V54.3308H335.64L335.641 54.3325Z" fill="white"/>
<path d="M349.556 55.9958L347.364 52.2322H344.405V55.9958H342.332V46.0894H347.891C348.975 46.0894 349.856 46.3257 350.534 46.7968C351.211 47.2679 351.551 48.0366 351.551 49.1012C351.551 49.8308 351.364 50.4431 350.99 50.9312C350.616 51.4193 350.112 51.7747 349.478 51.9941L352 55.9958H349.556ZM344.405 47.9142V50.5298H347.786C348.288 50.5298 348.694 50.4244 349 50.2118C349.308 50.0009 349.463 49.6693 349.463 49.222C349.463 48.3513 348.9 47.9142 347.772 47.9142H344.403H344.405Z" fill="white"/>
<path d="M364.422 55.9954H362.214L361.436 54.174H356.152L355.373 55.9954H353.194L357.75 46.089H359.864L364.422 55.9954ZM358.796 48.0056L356.934 52.3508H360.658L358.796 48.0056ZM358.391 46.0907H357.752L359.004 43.3101H361.148C361.148 43.3101 360.303 46.0907 358.391 46.0907Z" fill="white"/>
<path d="M367.578 55.8118C366.918 55.5839 366.381 55.2965 365.968 54.9546C365.554 54.6094 365.264 54.2624 365.095 53.9104L366.826 52.8135C367.442 53.8526 368.464 54.373 369.891 54.373C370.684 54.373 371.277 54.2624 371.673 54.0431C372.07 53.8237 372.269 53.5005 372.269 53.0788C372.269 52.788 372.155 52.5567 371.925 52.3849C371.696 52.2131 371.41 52.0839 371.066 51.9954C370.723 51.9087 370.243 51.8152 369.628 51.7182C368.765 51.5771 368.059 51.4257 367.515 51.2642C366.969 51.1009 366.503 50.8237 366.114 50.4308C365.726 50.038 365.534 49.4955 365.534 48.7999C365.534 47.8747 365.918 47.1638 366.69 46.6655C367.459 46.1672 368.48 45.9189 369.748 45.9189C370.849 45.9189 371.767 46.0924 372.502 46.4394C373.236 46.788 373.772 47.203 374.107 47.6876L372.364 48.771C372.153 48.4631 371.825 48.1995 371.379 47.9853C370.935 47.7693 370.391 47.6621 369.748 47.6621C369.053 47.6621 368.515 47.754 368.138 47.9393C367.758 48.1247 367.57 48.3747 367.57 48.691C367.57 48.9478 367.675 49.1468 367.886 49.2931C368.097 49.4393 368.366 49.5482 368.69 49.6247C369.015 49.6995 369.469 49.7812 370.051 49.8696C370.949 50.0006 371.689 50.1502 372.27 50.3169C372.852 50.4835 373.354 50.7795 373.777 51.2029C374.199 51.6247 374.411 52.2148 374.411 52.9733C374.411 53.6077 374.228 54.1638 373.864 54.6451C373.498 55.1247 372.973 55.4971 372.286 55.7624C371.599 56.026 370.789 56.1587 369.855 56.1587C369.002 56.1587 368.245 56.0447 367.583 55.8152" fill="white"/>
<path d="M272.899 30.504C271.567 31.2846 270.012 31.6775 268.234 31.6775C266.604 31.6775 265.162 31.3254 263.899 30.6197C262.635 29.9173 261.655 28.9513 260.963 27.72C260.271 26.4887 259.924 25.1248 259.924 23.6316C259.924 22.1384 260.276 20.8136 260.979 19.5942C261.684 18.3731 262.672 17.402 263.946 16.6758C265.22 15.9514 266.683 15.5891 268.332 15.5891C269.982 15.5891 271.348 15.9139 272.633 16.5602C273.919 17.2099 274.904 18.0636 275.584 19.118L279.771 16.0517C278.582 14.4684 277.019 13.2048 275.074 12.2609C273.128 11.317 270.88 10.8442 268.332 10.8442C265.785 10.8442 263.305 11.4157 261.229 12.5551C259.149 13.6997 257.54 15.249 256.397 17.2048C255.254 19.1605 254.683 21.3136 254.683 23.6673C254.683 26.021 255.249 28.2302 256.382 30.1758C257.514 32.1214 259.103 33.6503 261.147 34.7591C263.191 35.8696 265.541 36.4241 268.203 36.4241C270.865 36.4241 273.327 35.8798 275.339 34.7931C277.349 33.7047 278.926 32.2608 280.069 30.4581L275.717 27.754C275.167 28.8084 274.227 29.7285 272.899 30.5057" fill="white"/>
<path d="M317.582 25.4922C317.582 27.5109 317 29.0637 315.837 30.1487C314.672 31.2371 312.993 31.7796 310.8 31.7796C308.606 31.7796 306.837 31.2303 305.696 30.1317C304.555 29.0364 303.983 27.4871 303.983 25.4905V11.2661H298.815V26.6079C298.815 28.6062 299.318 30.346 300.329 31.8272C301.339 33.3085 302.749 34.4446 304.56 35.2354C306.371 36.0262 308.449 36.4191 310.8 36.4191C313.15 36.4191 315.22 36.0364 317.021 35.2677C318.822 34.5007 320.225 33.3698 321.235 31.8783C322.245 30.3868 322.749 28.596 322.749 26.5126V11.2678H317.58V25.4922H317.582Z" fill="white"/>
<path d="M293.839 30.9957C293.022 31.2491 292 31.4107 291.232 31.4107C290.082 31.4107 288.856 31.1675 288.856 28.2695V11.0894H283.65V28.8886C283.65 33.7576 286.238 36.4379 290.936 36.4379C292.444 36.4379 293.934 36.1539 294.828 35.8852L295.822 35.5892L295.286 30.5484L293.837 30.994L293.839 30.9957Z" fill="white"/>
<path d="M346.366 22.0333C347.111 21.5503 347.716 20.8939 348.177 20.0588C348.638 19.2255 348.868 18.2714 348.868 17.1949C348.868 15.2834 348.187 13.8208 346.827 12.8004C345.466 11.78 343.466 11.2681 340.832 11.2681H327.463V35.9635H341.228C344.192 35.9635 346.446 35.2714 347.993 33.8887C349.543 32.5061 350.313 30.5962 350.313 28.1608C350.313 26.8003 349.951 25.5996 349.228 24.5537C348.502 23.5112 347.548 22.6728 346.364 22.035M332.405 15.3191H340.308C342.701 15.3191 343.896 16.1847 343.896 17.9177C343.896 18.7748 343.64 19.4449 343.123 19.9279C342.607 20.4092 341.735 20.6507 340.507 20.6507H332.407V15.3191H332.405ZM344.111 30.8751C343.42 31.4993 342.252 31.8122 340.602 31.8122H332.405V24.5027H340.602C342.184 24.5027 343.335 24.8275 344.061 25.4755C344.784 26.1217 345.146 26.9959 345.146 28.0911C345.146 29.3207 344.801 30.2476 344.109 30.8751" fill="white"/>
<path d="M376.998 23.2318C376.998 21.2029 376.56 19.2387 375.696 17.3951C374.811 15.5176 373.451 13.9547 371.655 12.7557C369.842 11.538 367.607 10.9224 365.015 10.9224C362.66 10.9224 360.517 11.4836 358.643 12.5907C356.776 13.7013 355.301 15.2591 354.262 17.22C353.228 19.1638 352.703 21.39 352.703 23.8356C352.703 26.14 353.167 28.2709 354.085 30.1655C355.016 32.0974 356.448 33.6484 358.34 34.7743C360.218 35.8967 362.541 36.4665 365.245 36.4665C367.949 36.4665 370.231 35.8984 372.123 34.7777C373.99 33.6757 375.456 32.3814 376.476 30.9342L376.937 30.2811L373.254 27.39L372.742 28.1111C372.133 28.9716 371.169 29.8032 369.876 30.5838C368.611 31.3474 367.068 31.7352 365.294 31.7352C362.895 31.7352 361.046 31.0685 359.803 29.7556C358.701 28.5957 358.016 27.0634 357.76 25.1893H377V23.2369L376.998 23.2318ZM358.078 20.589C358.483 19.2301 359.177 18.1349 360.18 17.254C361.407 16.1774 362.956 15.6553 364.92 15.6553C366.328 15.6553 367.558 15.953 368.568 16.538C369.578 17.1247 370.356 17.8662 370.881 18.7404C371.242 19.339 371.5 19.958 371.653 20.589H358.078Z" fill="white"/>
<path d="M232.455 43.9801L237.232 39.2029C232.074 34.8526 224.356 35.1043 219.497 39.9631L216.126 43.3338L216.773 43.9801C221.103 48.31 228.125 48.31 232.455 43.9801Z" fill="white"/>
<path d="M216.771 3.24743L211.994 8.02462C217.152 12.3749 224.87 12.1232 229.727 7.26442L233.098 3.89369L232.452 3.24743C228.12 -1.08248 221.1 -1.08248 216.77 3.24743" fill="white"/>
<path d="M240.201 10.9956C235.851 16.1537 236.103 23.8714 240.962 28.7302L244.332 32.101L244.979 31.4547C249.309 27.1248 249.309 20.1027 244.979 15.7728L240.201 10.9956Z" fill="white"/>
<path d="M204.247 31.4546L209.025 36.2318C213.375 31.0737 213.123 23.356 208.264 18.4972L204.894 15.1265L204.247 15.7727C199.918 20.1026 199.918 27.1247 204.247 31.4546Z" fill="white"/>
</svg>
