<svg width="1217" height="57" viewBox="0 0 1217 57" fill="none" xmlns="http://www.w3.org/2000/svg">
<path d="M27.6386 6.22345C27.4276 6.42566 27.4188 6.4784 27.4188 7.63012V8.817H26.2231C24.7285 8.817 24.4296 8.89613 23.8581 9.47638C23.357 9.96872 23.1988 10.3731 23.1988 11.1292V11.6216L17.5545 11.6567C11.2508 11.6919 11.2596 11.6919 9.31665 12.3601C7.41764 13.0106 5.96701 14.1712 5.27246 15.5954C5.07905 16.0086 4.912 16.4394 4.912 16.5537C4.912 16.668 5.07905 17.0988 5.27246 17.512C5.96701 18.9363 7.41764 20.0968 9.31665 20.7474C11.1365 21.3716 11.4706 21.4067 15.7961 21.4507L19.6821 21.4946V22.1892V22.8837H17.0621C14.1433 22.8837 13.8268 22.9277 13.1586 23.4376C12.9476 23.5959 12.6663 23.9036 12.5168 24.1146C12.3674 24.3432 11.4882 26.5499 10.4596 29.3017C9.4749 31.9392 8.6309 34.1371 8.56936 34.1899C8.51661 34.2426 6.98685 34.6558 5.17576 35.1042C3.36466 35.5526 1.72941 36.001 1.54478 36.0889C1.01728 36.3526 0.542525 36.8362 0.278774 37.3725L0.0326058 37.8736L0.00623068 41.742C-0.0113527 44.6256 0.00623068 45.707 0.0853561 46.0059C0.234815 46.5246 0.938152 47.2456 1.44807 47.395C1.67666 47.4654 2.45033 47.5005 3.58446 47.5005H5.35159L5.48347 47.817C5.71205 48.3621 6.38901 49.2413 6.9341 49.6897C9.49249 51.8173 13.3345 51.2897 15.1456 48.5731C15.3653 48.239 15.5851 47.8698 15.6291 47.7379L15.7258 47.5005H22.4954H29.265L29.3969 47.817C29.6255 48.3621 30.3025 49.2413 30.8475 49.6897C33.4059 51.8173 37.2479 51.2897 39.059 48.5731C39.2788 48.239 39.4986 47.8698 39.5425 47.7379L39.6393 47.5005H40.7031C41.2921 47.5005 41.9339 47.4566 42.1361 47.395C42.646 47.2456 43.3494 46.5159 43.49 46.0059C43.5779 45.6982 43.5955 43.2541 43.5779 35.28L43.5516 24.9498L43.3142 24.4926C42.9889 23.886 42.5317 23.4376 41.9515 23.1739L41.4855 22.9629V22.2156V21.4771H43.0241C44.545 21.4771 44.5714 21.4771 44.7824 21.2573C45.0725 20.9759 45.0725 20.5715 44.7824 20.2902C44.589 20.088 44.5011 20.0704 43.7362 20.0704H42.901L42.8746 17.5823L42.8482 15.1031L42.6109 14.6547C42.2592 13.9865 41.9954 13.714 41.38 13.3887C40.8525 13.1074 40.7734 13.0898 39.7535 13.0546L38.6722 13.0194V11.8238C38.6722 10.4171 38.5842 10.083 38.0831 9.52034C37.5468 8.9225 37.1864 8.817 35.6654 8.817H34.4521V7.63012C34.4521 6.4784 34.4434 6.42566 34.2324 6.22345L34.0214 6.00365H30.9355H27.8496L27.6386 6.22345ZM33.0455 8.11366V8.817H30.9355H28.8255V8.11366V7.41033H30.9355H33.0455V8.11366ZM37.0457 10.4435C37.2567 10.6457 37.2655 10.6984 37.2655 11.8414V13.0282L34.0829 13.0546L30.8915 13.081L30.4519 13.3008C29.8893 13.5733 29.3617 14.1008 29.0892 14.6635C28.8694 15.0943 28.8694 15.147 28.843 17.5823L28.8167 20.0704H26.7067H24.6054V15.3668V10.6545L24.8252 10.4435L25.0362 10.2237H30.9355H36.8347L37.0457 10.4435ZM23.1988 14.4437V15.8504H14.9697H6.74947L6.92531 15.6042C7.57589 14.6811 8.99136 13.8546 10.6266 13.4326C11.9717 13.081 12.5432 13.0546 17.9501 13.0458L23.1988 13.037V14.4437ZM40.9316 14.7602C41.3712 15.1207 41.4943 15.446 41.2657 15.6657C40.9668 15.9559 39.9821 16.4394 39.1381 16.7295C36.5709 17.5823 33.4147 17.3538 31.1992 16.1405C30.2321 15.613 30.1442 15.4547 30.5574 14.9624C31.0058 14.4349 30.8915 14.4437 35.9643 14.4701L40.5888 14.4877L40.9316 14.7602ZM23.1988 18.6725V20.0792L17.6424 20.044C12.2882 20.0176 12.0421 20.0088 11.2157 19.8242C9.16719 19.3583 7.68139 18.5582 6.91651 17.4944L6.74947 17.257H14.9697H23.1988V18.6725ZM31.0322 17.6351C32.474 18.3296 33.8983 18.6198 35.8588 18.6198C37.8282 18.6198 39.2173 18.3296 40.7558 17.6087L41.4855 17.2658V18.6725V20.0704H35.8588H30.2321V18.6549C30.2321 17.8813 30.2585 17.257 30.3025 17.2746C30.3376 17.2922 30.6629 17.4593 31.0322 17.6351ZM30.2321 22.1804V22.8837H25.6604H21.0888V22.1804V21.4771H25.6604H30.2321V22.1804ZM40.0788 22.1804V22.8837H35.8588H31.6388V22.1804V21.4771H35.8588H40.0788V22.1804ZM41.5383 24.519C41.6701 24.6157 41.8636 24.8091 41.9603 24.941C42.1449 25.1784 42.1449 25.2751 42.1713 31.7722L42.1889 38.3571H41.002C39.8503 38.3571 39.7975 38.3659 39.5953 38.5769C39.4019 38.7616 39.3755 38.8671 39.3755 39.4122C39.3755 39.9572 39.4019 40.0627 39.5953 40.2474C39.7272 40.388 39.9118 40.4672 40.0788 40.4672C40.369 40.4672 40.7822 40.1331 40.7822 39.8957C40.7822 39.7902 40.9141 39.7638 41.4855 39.7638H42.1889V41.1705V42.5772H40.7558H39.3228L38.9535 42.0497C37.9776 40.6694 36.2017 39.7638 34.4521 39.7638C32.7026 39.7638 30.9267 40.6694 29.9508 42.0497L29.5815 42.5772H26.7418H23.9021V35.4031C23.9021 30.1105 23.8757 28.1324 23.7966 27.8774C23.7438 27.684 23.5241 27.3323 23.3131 27.1038C22.6713 26.3828 22.7768 26.4004 17.5984 26.4004C14.9961 26.4004 13.0883 26.3653 13.0883 26.3213C13.0883 26.1191 13.6246 24.9498 13.8092 24.7564C14.2488 24.2728 13.4927 24.2992 27.9199 24.3168C41.2745 24.3344 41.3009 24.3344 41.5383 24.519ZM22.2756 28.0269L22.4954 28.2379V31.1919V34.1371H16.3412C12.9564 34.1371 10.187 34.1108 10.187 34.0756C10.187 34.0492 10.7145 32.625 11.3475 30.9106L12.5168 27.8071H17.2907H22.0646L22.2756 28.0269ZM22.4954 39.0605V42.5772H18.9524H15.4093L15.0401 42.0497C14.0378 40.6342 12.1388 39.7023 10.4244 39.7814L9.83536 39.8078V37.6714V35.5438H16.1654H22.4954V39.0605ZM8.42869 37.9351V40.1594L7.96273 40.3968C7.24181 40.7749 6.52089 41.3991 6.07251 42.0145L5.6593 42.5772H3.53171H1.39532V41.1705V39.7638H2.09866H2.80199V40.2474C2.80199 40.6518 2.83716 40.7749 3.02179 40.9507C3.30312 41.2408 3.70754 41.2408 3.98888 40.9507C4.19988 40.7485 4.20867 40.6782 4.20867 39.7638C4.20867 38.8495 4.19988 38.7791 3.98888 38.5769C3.78667 38.3659 3.73392 38.3571 2.59099 38.3571H1.39532L1.49203 38.111C1.59753 37.8384 1.88766 37.5043 2.14262 37.3637C2.23932 37.3109 3.68116 36.9241 5.35159 36.5021C7.02201 36.0801 8.39352 35.7284 8.4111 35.7284C8.4199 35.7196 8.42869 36.7219 8.42869 37.9351ZM11.5497 41.3024C13.8004 41.8914 15.1983 44.1948 14.6268 46.384C14.2312 47.9049 13.0619 49.083 11.5497 49.4787C9.34303 50.0501 7.0396 48.6522 6.45055 46.4016C5.66809 43.386 8.53419 40.5199 11.5497 41.3024ZM35.4632 41.3024C36.9754 41.698 38.1447 42.8761 38.5403 44.397C39.1118 46.5862 37.7139 48.8896 35.4632 49.4787C33.2565 50.0501 30.953 48.6522 30.364 46.4016C29.5815 43.386 32.4476 40.5199 35.4632 41.3024ZM5.0263 44.3091C4.99113 44.4938 4.95596 44.9685 4.95596 45.3641V46.0938H3.39104C1.8437 46.0938 1.82611 46.0938 1.61511 45.8741C1.4129 45.6806 1.39532 45.5927 1.39532 44.8191V43.9838H3.24158H5.09663L5.0263 44.3091ZM28.9397 44.3091C28.9046 44.4938 28.8694 44.9685 28.8694 45.3641V46.0938H22.4954H16.1214V45.3641C16.1214 44.9685 16.0863 44.4938 16.0511 44.3091L15.9808 43.9838H22.4954H29.0101L28.9397 44.3091ZM42.1889 44.8191C42.1889 45.5927 42.1713 45.6806 41.9691 45.8741C41.7756 46.0763 41.6965 46.0938 40.8965 46.0938H40.0349V45.3641C40.0349 44.9685 39.9997 44.4938 39.9645 44.3091L39.8942 43.9838H41.0459H42.1889V44.8191Z" fill="white"/>
<path d="M26.232 11.8502C26.0913 11.9821 26.0122 12.1667 26.0122 12.3338C26.0122 12.5008 26.0913 12.6854 26.232 12.8173C26.3639 12.958 26.5485 13.0371 26.7155 13.0371C26.8826 13.0371 27.0672 12.958 27.1991 12.8173C27.3398 12.6854 27.4189 12.5008 27.4189 12.3338C27.4189 12.1667 27.3398 11.9821 27.1991 11.8502C27.0672 11.7096 26.8826 11.6304 26.7155 11.6304C26.5485 11.6304 26.3639 11.7096 26.232 11.8502Z" fill="white"/>
<path d="M27.4189 26.5146C26.9881 26.6553 26.2496 27.4114 26.1177 27.8597C26.0474 28.1147 26.0122 29.073 26.0122 30.972C26.0122 32.871 26.0474 33.8293 26.1177 34.0843C26.2584 34.5678 26.9881 35.2975 27.4716 35.4382C27.9903 35.5877 38.8041 35.5877 39.3229 35.4382C39.8064 35.2975 40.5361 34.5678 40.6768 34.0843C40.8262 33.5831 40.8262 28.3609 40.6768 27.8773C40.624 27.6839 40.4042 27.3322 40.1932 27.1037C39.5339 26.3739 39.7888 26.4003 33.3621 26.4091C29.5201 26.4179 27.6299 26.4531 27.4189 26.5146ZM33.0456 30.972V34.137H30.452H27.8497L27.6387 33.9172L27.4189 33.7062V30.972V28.2378L27.6387 28.0268L27.8497 27.807H30.452H33.0456V30.972ZM39.1558 28.0268L39.3756 28.2378V30.972V33.7062L39.1558 33.9172L38.9448 34.137H36.6941H34.4522V30.972V27.807H36.6941H38.9448L39.1558 28.0268Z" fill="white"/>
<path d="M17.7919 37.1701C17.6513 37.3019 17.5721 37.4866 17.5721 37.6536C17.5721 37.8206 17.6513 38.0053 17.7919 38.1371C17.9941 38.3481 18.0381 38.3569 19.3305 38.3569C20.6229 38.3569 20.6668 38.3481 20.869 38.1371C21.0097 38.0053 21.0888 37.8206 21.0888 37.6536C21.0888 37.4866 21.0097 37.3019 20.869 37.1701C20.6668 36.9591 20.6229 36.9503 19.3305 36.9503C18.0381 36.9503 17.9941 36.9591 17.7919 37.1701Z" fill="white"/>
<path d="M10.064 42.7791C9.57162 43.2715 9.85296 43.8693 10.6266 43.9924C11.4706 44.1243 11.9014 44.599 11.9014 45.3903C11.9014 46.2431 11.3915 46.753 10.5387 46.753C9.74746 46.753 9.27271 46.3222 9.14083 45.4782C9.01775 44.7045 8.41991 44.4232 7.92757 44.9155C7.71657 45.1265 7.70778 45.1793 7.76053 45.6716C7.82207 46.287 8.23528 47.131 8.63091 47.4651C8.77158 47.5882 9.09687 47.7904 9.34304 47.9223C9.72108 48.1157 9.90571 48.1509 10.5387 48.1509C11.1717 48.1509 11.3563 48.1157 11.7344 47.9223C12.3938 47.5706 12.6751 47.3069 13.0092 46.6915C13.2817 46.1815 13.3081 46.076 13.2993 45.3903C13.2993 44.7573 13.2641 44.5727 13.0707 44.1946C12.9388 43.9484 12.7366 43.6231 12.6136 43.4825C12.2795 43.0869 11.4355 42.6736 10.82 42.6121C10.3277 42.5594 10.275 42.5681 10.064 42.7791Z" fill="white"/>
<path d="M33.7928 42.6563C32.9839 42.8673 32.2718 43.4475 31.9026 44.2036C31.7355 44.5641 31.6916 44.7839 31.6916 45.3905C31.6828 46.0762 31.7091 46.1817 31.9817 46.6917C32.4476 47.5532 33.2125 48.072 34.1796 48.1687C34.6632 48.2214 34.7159 48.2126 34.9269 48.0016C35.4192 47.5093 35.1379 46.9115 34.3642 46.7884C33.5202 46.6565 33.0894 46.1817 33.0894 45.3905C33.0894 44.5377 33.5994 44.0278 34.4522 44.0278C35.2434 44.0278 35.7182 44.4586 35.85 45.3026C35.9731 46.0762 36.571 46.3576 37.0633 45.8652C37.2743 45.6542 37.2831 45.6015 37.2303 45.1179C37.1336 44.1596 36.6149 43.386 35.7797 42.9376C35.2082 42.6387 34.3379 42.5068 33.7928 42.6563Z" fill="white"/>
<path d="M312.164 5.08791C309.078 5.39098 306.892 6.00631 304.403 7.24615C301.85 8.52274 299.297 10.6718 298.544 12.1688C297.598 14.0607 297.745 16.5312 298.92 18.4966C299.885 20.113 301.657 21.4906 303.393 21.9682C304.238 22.1978 305.744 22.2437 306.497 22.0692C306.846 21.9865 307.14 21.9223 307.159 21.9223C307.177 21.9223 307.131 22.1427 307.057 22.3998C306.745 23.5386 306.947 25.4397 307.508 26.7071C308.334 28.5899 310.208 30.2797 312.054 30.8308C312.265 30.8951 312.439 30.9777 312.439 31.0053C312.439 31.0328 308.637 34.8626 303.981 39.5097C299.334 44.1568 295.43 48.1335 295.302 48.3356C294.769 49.2356 294.944 50.2458 295.807 51.1183C296.514 51.8439 296.817 51.9908 297.607 52C298.14 52 298.314 51.9633 298.663 51.752C298.902 51.6143 302.704 47.8764 307.526 43.0547C312.173 38.3984 316.003 34.5962 316.03 34.5962C316.058 34.5962 316.141 34.7707 316.205 34.982C316.269 35.2024 316.444 35.6248 316.591 35.9279C317.996 38.7291 321.017 40.4648 323.892 40.1067C324.314 40.0516 324.764 39.9689 324.893 39.9138C325.113 39.8311 325.132 39.8403 325.077 40.0332C324.911 40.6393 324.819 41.6128 324.865 42.2649C325.086 45.213 327.189 47.8672 330.027 48.804C331 49.1162 332.672 49.1989 333.563 48.9784C334.619 48.7121 335.583 48.1703 336.355 47.408C340.873 42.9262 342.848 36.0289 341.635 28.9021C340.892 24.4846 338.761 19.8007 335.868 16.2006C335.51 15.7598 335.216 15.3648 335.216 15.3373C335.216 15.3097 335.354 15.071 335.528 14.8138C336.015 14.0699 336.566 12.9127 336.731 12.2698C337.181 10.5524 336.134 9.79013 334.251 10.4698C333.737 10.6534 332.69 11.1953 332.185 11.5351C331.955 11.6912 331.744 11.8198 331.707 11.8198C331.671 11.8198 331.276 11.5259 330.835 11.1677C327.244 8.26558 322.551 6.1257 318.179 5.40016C316.168 5.06953 313.661 4.93177 312.164 5.08791ZM317.399 6.44714C320.145 6.87879 322.808 7.73291 325.297 9.00031C326.372 9.54216 328.006 10.5157 328.511 10.9106L328.741 11.0851L328.19 11.0208C327.18 10.8922 324.856 10.9473 323.828 11.1218C319.208 11.9208 314.129 14.6026 309.822 18.5058C309.372 18.9191 308.977 19.2589 308.949 19.2589C308.922 19.2589 307.085 17.4404 304.863 15.2087L300.822 11.1677L301.308 10.7269C303.843 8.42171 307.636 6.80532 311.613 6.30938C312.651 6.18999 316.26 6.27264 317.399 6.44714ZM335.675 11.5902C335.675 11.9392 335.28 12.9311 334.848 13.6934C334.628 14.0791 334.426 14.3913 334.398 14.3913C334.362 14.3913 333.948 13.9964 333.471 13.5189C332.764 12.8025 332.626 12.628 332.736 12.5545C333.609 11.9759 334.977 11.3698 335.427 11.3606C335.629 11.3606 335.675 11.3973 335.675 11.5902ZM308.031 20.1038C308.031 20.2232 307.204 20.6549 306.644 20.8294C305.955 21.0406 304.624 21.059 303.852 20.8661C302.19 20.4436 300.518 19.1028 299.784 17.6058C299.233 16.4853 299.095 15.8516 299.141 14.676C299.187 13.6382 299.334 13.1056 299.747 12.4076L299.995 12.0035L304.008 16.0169C306.222 18.2303 308.031 20.0671 308.031 20.1038ZM328.511 12.2698C329.017 12.3708 329.77 12.5913 330.183 12.7566C330.982 13.078 332.185 13.8127 332.185 13.9781C332.185 14.024 328.98 17.2751 325.067 21.1875L317.95 28.3052L313.863 24.2183L309.767 20.1314L310.125 19.8099C312.072 18.0741 313.165 17.2108 314.735 16.1639C317.821 14.1158 321.228 12.7107 324.268 12.2423C325.499 12.0494 327.409 12.0586 328.511 12.2698ZM333.535 15.42C333.746 15.7414 333.994 16.1639 334.095 16.3659C334.371 16.917 334.72 18.1201 334.848 18.9007C335.014 19.9385 334.922 22.3539 334.674 23.6213C333.847 27.7358 331.221 32.5298 327.611 36.5065L326.913 37.2688L322.845 33.2003L318.776 29.1317L325.912 21.9957C329.843 18.065 333.076 14.8505 333.103 14.8505C333.131 14.8505 333.324 15.1077 333.535 15.42ZM336.483 19.0568C338.687 22.4917 339.982 25.8438 340.588 29.7011C340.79 30.9869 340.864 33.7605 340.735 35.1014C340.322 39.1974 338.706 43.0915 336.309 45.7273L335.868 46.2141L331.808 42.1639L327.749 38.1045L328.833 36.8831C332.975 32.19 335.5 27.047 336.052 22.1978C336.153 21.2794 336.116 19.1762 335.987 18.5884C335.95 18.4507 335.95 18.3405 335.978 18.3405C336.006 18.3405 336.235 18.6619 336.483 19.0568ZM317.031 29.1042C317.031 29.2236 315.736 29.8113 315.222 29.9124C314.441 30.0777 313.183 29.9767 312.366 29.7011C311.383 29.3613 310.749 28.948 309.914 28.1215C308.683 26.9 308.095 25.5132 308.095 23.8509C308.095 22.859 308.251 22.2345 308.683 21.4722L308.968 20.9763L313 25.0081C315.213 27.2214 317.031 29.0674 317.031 29.1042ZM322.018 34.0268C325.132 37.1402 326.013 38.077 325.922 38.1505C325.609 38.3984 324.755 38.7566 324.158 38.8852C322.376 39.2617 320.374 38.5913 318.914 37.1218C318.51 36.7178 318.042 36.1483 317.876 35.8636C317.142 34.6238 316.866 32.9798 317.16 31.7124C317.298 31.1247 317.812 30.0042 317.941 30.0042C317.968 30.0042 319.805 31.8135 322.018 34.0268ZM316.076 31.1247C316.049 31.2441 315.966 31.74 315.911 32.2268L315.801 33.1268L306.929 41.9894C298.232 50.6867 298.057 50.852 297.708 50.852C296.79 50.852 295.917 49.704 296.285 48.9876C296.34 48.8774 300.335 44.8273 305.175 39.9873L313.955 31.1981L314.414 31.189C314.662 31.189 315.103 31.1247 315.378 31.0604C316.122 30.8951 316.141 30.8951 316.076 31.1247ZM331.028 43.0364L335.06 47.0682L334.628 47.3161C333.14 48.1886 331.294 48.1794 329.522 47.307C328.814 46.9488 328.521 46.7375 327.914 46.1314C327.097 45.2956 326.684 44.6711 326.326 43.6701C326.114 43.0915 326.087 42.8527 326.078 41.8976C326.078 41.0618 326.114 40.6761 326.243 40.2903C326.427 39.7669 326.831 39.0046 326.932 39.0046C326.968 39.0046 328.814 40.8138 331.028 43.0364Z" fill="white"/>
<path d="M891.562 6.1437C890.458 6.53885 889.676 7.60758 889.676 8.7212C889.676 9.61031 890.179 10.1402 891.167 10.2839L891.589 10.3467V13.975V17.6033H891.059C889.245 17.6033 887.503 19.0582 887.108 20.9082C886.964 21.5728 886.964 45.0488 887.108 45.7314C887.162 45.9918 887.305 46.4229 887.431 46.6833C887.701 47.2581 888.509 48.1562 889.048 48.4705C889.515 48.7399 890.422 49.0363 890.79 49.0363H891.05V49.9524C891.05 51.084 891.221 51.4791 891.859 51.8024C892.218 51.982 892.389 52 893.619 52C894.867 52 895.002 51.982 895.37 51.7934C895.963 51.4791 896.116 51.1468 896.169 50.0242L896.214 49.0812L898.487 49.0543L900.75 49.0363V49.8176C900.75 50.8504 900.857 51.1917 901.289 51.5779C901.729 51.982 901.935 52.018 903.588 51.982C904.827 51.9551 904.944 51.9371 905.231 51.7396L905.528 51.524L905.95 51.7396L906.363 51.9551L918.604 51.982C926.785 51.991 930.97 51.9731 931.195 51.9102C931.77 51.7575 932.362 51.2815 932.668 50.7427L932.946 50.2487L932.973 46.9977L933 43.7376L932.775 43.5131C932.488 43.2257 932.147 43.2257 931.868 43.5131C931.653 43.7196 931.644 43.7825 931.644 44.7884V45.8481L931.114 45.9559C929.192 46.3151 927.315 48.1831 926.947 50.0961L926.839 50.6529H918.801H910.763L910.611 50.0242C910.368 49.0094 909.955 48.264 909.192 47.5006C908.824 47.1324 908.294 46.7013 908.024 46.5486C907.476 46.2343 906.497 45.893 906.165 45.893H905.959V42.4354V38.9777H906.165C906.497 38.9777 907.476 38.6365 908.024 38.3221C908.294 38.1695 908.824 37.7384 909.192 37.3702C909.955 36.6068 910.368 35.8614 910.611 34.8465L910.763 34.2179H918.801H926.839L926.947 34.7478C927.306 36.6786 929.183 38.5556 931.114 38.9149L931.644 39.0226V40.244C931.644 41.3487 931.662 41.4924 931.832 41.7079C932.084 42.0312 932.551 42.0312 932.802 41.7079C932.982 41.4744 932.991 41.3667 932.991 38.2234C932.991 36.2925 932.955 34.8465 932.901 34.649C932.632 33.706 931.752 32.9875 930.746 32.8977L930.207 32.8438V29.0988C930.207 25.9465 930.189 25.2819 930.063 24.8688C929.767 23.8629 929.004 23.0008 927.98 22.5158C927.405 22.2464 927.315 22.2284 926.058 22.2015L924.729 22.1656V19.615V17.0644H925.025C925.411 17.0644 926.058 16.7321 926.291 16.4088C926.588 16.0137 926.597 15.1335 926.327 14.5318C926.04 13.9211 925.627 13.4451 925.097 13.1308L924.684 12.8883L918.765 12.8614C912.137 12.8344 912.335 12.8165 911.599 13.4631C911.383 13.6607 911.087 14.0289 910.943 14.2893C910.709 14.7114 910.674 14.8731 910.674 15.4658C910.674 16.0137 910.709 16.2023 910.862 16.4088C911.096 16.7232 911.742 17.0644 912.128 17.0644H912.425V19.615V22.1656L911.329 22.2015C910.718 22.2284 910.162 22.2733 910.081 22.3093C909.946 22.3631 909.928 22.2644 909.892 21.5369C909.865 20.7915 909.82 20.6119 909.524 19.9922C908.85 18.5642 907.396 17.6033 905.896 17.6033H905.42V13.984V10.3647L905.959 10.2569C906.929 10.0504 907.396 9.40375 907.279 8.42484C907.207 7.82312 906.848 7.18547 906.318 6.70949C905.545 6.01796 905.572 6.01796 900.525 6.01796C896.187 6.01796 896.098 6.01796 895.864 6.20656C895.693 6.34127 895.631 6.47599 895.631 6.69153C895.631 6.90707 895.693 7.04178 895.864 7.17649C896.098 7.36509 896.187 7.36509 900.453 7.36509C905.204 7.36509 905.177 7.36509 905.626 7.89497C905.914 8.23624 906.039 8.78407 905.86 8.90082C905.788 8.94572 902.456 8.98165 898.451 8.98165C892.532 8.98165 891.14 8.96369 891.068 8.8649C890.943 8.71222 891.077 8.19133 891.32 7.877C891.625 7.49083 892.029 7.36509 892.972 7.36509C893.781 7.36509 893.861 7.34713 894.059 7.14057C894.185 7.02382 894.283 6.81726 894.283 6.69153C894.283 6.5658 894.185 6.35924 894.059 6.24249C893.852 6.02694 893.79 6.01796 892.873 6.01796C892.299 6.02694 891.769 6.07185 891.562 6.1437ZM904.055 13.9391L904.028 17.5584L898.487 17.5853L892.936 17.6033V13.966V10.3288H898.504H904.073L904.055 13.9391ZM924.531 14.3702C924.899 14.5947 925.178 15.0527 925.178 15.4209V15.7173H918.577H911.976V15.4658C911.976 15.1156 912.263 14.6306 912.604 14.3881L912.901 14.1906H918.568C924.064 14.1906 924.244 14.1995 924.531 14.3702ZM923.381 19.624V22.1835H918.577H913.772V19.6868C913.772 18.3128 913.799 17.1542 913.835 17.1273C913.862 17.0914 916.026 17.0644 918.64 17.0644H923.381V19.624ZM894.463 25.0125L888.401 31.0746L888.374 26.2519C888.356 20.9082 888.356 20.8454 888.922 20.1C889.245 19.6689 889.928 19.1749 890.368 19.0492C890.52 19.0043 892.865 18.9594 895.586 18.9594L900.525 18.9504L894.463 25.0125ZM906.964 19.2019C907.503 19.4713 908.042 20.0102 908.312 20.549C908.482 20.9082 908.527 21.1417 908.545 22.0758L908.581 23.1804L908.249 23.5486C908.06 23.7462 907.809 24.1414 907.674 24.4198L907.44 24.9227L907.414 28.8832L907.387 32.8438L906.857 32.8977C906.21 32.9516 905.51 33.3108 905.141 33.7778C904.719 34.3167 904.611 34.7478 904.611 35.9153V36.957L899.25 42.3186L893.879 47.6892H892.218C890.574 47.6892 890.547 47.6892 890.018 47.4377C889.407 47.1414 888.877 46.6115 888.59 45.9918C888.401 45.5877 888.401 45.4979 888.374 39.2921L888.347 33.0144L895.379 25.9734L902.411 18.9414L904.477 18.9684C906.426 18.9953 906.569 19.0043 906.964 19.2019ZM927.261 23.6743C927.827 23.8629 928.393 24.3749 928.644 24.9137C928.86 25.3717 928.86 25.3717 928.86 29.1168V32.8708H925.636H922.421L922.367 32.3499C922.313 31.6943 922.07 31.2093 921.567 30.7423C920.957 30.1855 920.705 30.1316 918.756 30.1316C917.203 30.1316 917.014 30.1496 916.646 30.3202C915.82 30.7153 915.209 31.6134 915.209 32.4397V32.8708H911.976H908.743V29.1168V25.3717L908.958 24.9227C909.228 24.3479 909.668 23.9348 910.234 23.7103C910.656 23.5486 911.006 23.5396 918.765 23.5307C925.851 23.5307 926.902 23.5486 927.261 23.6743ZM920.355 31.5595C920.777 31.7302 920.975 31.9996 921.02 32.4666L921.073 32.8708H918.81H916.556V32.5205C916.556 32.1164 916.816 31.7392 917.221 31.5595C917.607 31.3889 919.96 31.3889 920.355 31.5595ZM909.335 34.5053C909.066 35.8704 907.611 37.3253 906.255 37.5947L905.959 37.6486V36.3284C905.959 34.3257 906.057 34.2269 908.105 34.2179H909.398L909.335 34.5053ZM931.303 34.5592L931.599 34.8465L931.626 36.2565L931.653 37.6576L931.356 37.5947C930.755 37.4869 929.803 36.9301 929.318 36.4182C928.851 35.9242 928.375 35.0621 928.267 34.5053L928.204 34.2089L929.605 34.2358L931.015 34.2628L931.303 34.5592ZM904.611 43.2886V47.6892H900.193H895.765L900.166 43.2886C902.582 40.8637 904.576 38.8879 904.585 38.8879C904.602 38.8879 904.611 40.8637 904.611 43.2886ZM907.108 47.5994C908.132 48.0754 909.129 49.3057 909.335 50.3565L909.398 50.6529H908.114C906.066 50.6529 905.959 50.5451 905.959 48.5424V47.2132L906.255 47.2761C906.408 47.312 906.794 47.4557 907.108 47.5994ZM931.626 48.6322L931.599 50.0242L931.303 50.3116L931.015 50.608L929.605 50.6349L928.204 50.6619L928.267 50.3655C928.375 49.8266 928.842 48.9555 929.273 48.4975C929.749 47.9856 930.099 47.752 930.827 47.4557C931.698 47.0875 931.662 47.0336 931.626 48.6322ZM894.804 49.8176L894.777 50.608H893.61H892.442L892.415 49.8176L892.389 49.0363H893.61H894.831L894.804 49.8176ZM904.567 49.8446V50.608H903.354H902.142L902.115 49.9434C902.097 49.5752 902.106 49.2249 902.133 49.1531C902.178 49.0543 902.429 49.0363 903.372 49.0543L904.567 49.0812V49.8446Z" fill="white"/>
<path d="M1193.49 6.01926C1193.4 6.04566 1193.04 6.12484 1192.7 6.20403C1191.22 6.54716 1190.4 7.08386 1188.55 8.90512L1187.11 10.3041L1182.79 8.22765C1180.4 7.07507 1178.38 6.14244 1178.29 6.14244C1178 6.14244 1177.75 6.32721 1176.76 7.31262C1176.14 7.91971 1175.73 8.40362 1175.67 8.58838C1175.48 9.13388 1175.64 9.28345 1179.32 12.0901L1182.73 14.7032L1180.59 16.8412L1178.45 18.9704L1176.77 18.8121C1175.84 18.7241 1174.97 18.6801 1174.83 18.7065C1174.54 18.7593 1172.32 20.8709 1172.1 21.3108C1171.93 21.6275 1172.01 22.0674 1172.27 22.3138C1172.39 22.4282 1172.94 22.6305 1173.72 22.8417C1174.42 23.0353 1175 23.2024 1175.02 23.22C1175.03 23.2376 1174.97 23.572 1174.88 23.9591C1174.44 25.8419 1174.28 28.1119 1174.44 29.898C1174.49 30.5051 1174.56 31.2529 1174.59 31.5697C1174.63 32.1064 1174.61 32.1855 1174.27 32.9246C1172.96 35.7401 1172.15 38.8195 1172.02 41.4678C1171.81 45.5502 1173.49 48.7352 1176.57 50.1254C1179.72 51.5507 1183.91 51.234 1189.03 49.1751C1189.53 48.9728 1190.14 48.7088 1190.39 48.5857C1190.75 48.4009 1190.92 48.3657 1191.28 48.4009C1194.22 48.656 1194.65 48.6648 1195.96 48.5681C1198.7 48.3481 1200.88 47.7674 1203.27 46.606C1204.46 46.0253 1205.95 45.1191 1206.19 44.8376C1206.25 44.7584 1206.33 44.556 1206.36 44.38C1206.4 44.1073 1206.37 44.0281 1206.09 43.7554C1205.62 43.2803 1205.41 43.3242 1204.2 44.0985C1202.67 45.0839 1200.3 46.0517 1198.37 46.4741L1198.14 46.5268L1198.09 45.1807C1198.05 44.0897 1198.02 43.7466 1197.86 43.333C1197.6 42.682 1197.08 42.0309 1196.49 41.635C1195.67 41.0895 1195.46 41.0543 1192.48 40.9927C1189.86 40.9399 1189.79 40.9311 1189.46 40.7287C1188.96 40.4208 1188.71 39.9545 1188.61 39.1626C1188.5 38.3532 1188.28 37.8693 1187.8 37.3854C1187.25 36.8399 1186.7 36.6727 1185.5 36.6727C1184.32 36.6727 1183.77 36.5319 1183.27 36.1008C1181.96 34.9834 1182.28 32.907 1183.86 32.1943C1184.08 32.0976 1184.43 32.0096 1184.65 32.0096C1185.12 32.0096 1185.75 31.7192 1185.99 31.3937C1186.08 31.2705 1186.19 30.9362 1186.23 30.6546C1186.33 30.0563 1186.49 29.7836 1186.88 29.5372C1187.14 29.3701 1187.3 29.3701 1190.15 29.3877C1193.03 29.4141 1193.16 29.4229 1193.5 29.6076C1193.99 29.8628 1194.4 30.3027 1194.62 30.7778C1194.8 31.1385 1194.81 31.3761 1194.86 33.6989L1194.9 36.2152L1195.16 36.5935C1195.31 36.8047 1195.6 37.095 1195.81 37.2358C1196.15 37.4821 1196.26 37.4997 1197.27 37.5613C1198.42 37.6317 1198.83 37.7637 1199.23 38.186C1199.62 38.5995 1199.7 38.9603 1199.7 40.3152C1199.7 41.0191 1199.73 41.6878 1199.78 41.8021C1200.01 42.4268 1200.73 42.594 1201.2 42.1365L1201.46 41.8813V40.3944C1201.46 38.7139 1201.37 38.2564 1200.89 37.5085C1200.38 36.7255 1199.64 36.18 1198.81 35.9688C1198.6 35.916 1198.02 35.8457 1197.54 35.8105L1196.66 35.7489L1196.61 33.3733C1196.56 31.5257 1196.52 30.901 1196.41 30.549C1195.93 29.0533 1194.68 27.9447 1193.19 27.6984C1192.82 27.6368 1191.52 27.6104 1189.67 27.628L1186.72 27.6544L1186.22 27.9007C1185.51 28.2439 1184.88 28.9653 1184.66 29.6604L1184.5 30.1971L1183.86 30.3555C1180.65 31.1473 1179.61 35.0714 1182.01 37.3238C1182.86 38.1156 1183.84 38.4324 1185.46 38.4324C1186.59 38.4324 1186.71 38.5291 1186.89 39.5498C1187.12 40.9487 1187.78 41.8725 1188.94 42.418L1189.53 42.6996L1192.27 42.7436L1195.01 42.7875L1195.44 43.0515C1195.76 43.2539 1195.93 43.4386 1196.12 43.7906C1196.34 44.2481 1196.35 44.3273 1196.35 45.5238V46.7732L1195.68 46.8436C1194.85 46.914 1192.89 46.826 1191.82 46.6676C1185.76 45.7438 1180.67 42.0133 1178 36.5407C1177.43 35.3617 1176.82 33.6813 1176.64 32.7574L1176.54 32.2295L1177.19 31.0418C1178.18 29.2557 1179.09 27.8216 1179.15 27.9711C1179.18 28.0415 1179.29 28.4462 1179.41 28.8686C1179.64 29.7044 1179.78 29.9244 1180.15 30.0563C1180.6 30.2059 1180.87 30.0299 1182.17 28.7278L1183.42 27.4608V26.9857C1183.42 26.7218 1183.36 25.8771 1183.29 25.1029L1183.15 23.7039L1185.29 21.5571L1187.43 19.4191L1189.98 22.7449C1191.38 24.575 1192.62 26.1587 1192.74 26.2643C1192.98 26.5018 1193.42 26.5282 1193.78 26.3434C1193.92 26.2731 1194.44 25.7803 1194.97 25.2524C1195.9 24.2846 1195.98 24.1527 1195.91 23.6511C1195.9 23.5808 1194.99 21.6275 1193.88 19.3136C1192.77 16.9996 1191.87 15.0816 1191.87 15.0464C1191.87 15.0112 1192.27 14.5801 1192.77 14.0961C1193.73 13.1371 1194.97 12.3013 1197.14 11.1135L1198.23 10.5152L1198.76 10.6208C1200.96 11.0695 1203.66 12.3629 1205.77 13.973C1206.51 14.5449 1208.05 15.9702 1208.05 16.0934C1208.05 16.1374 1207.53 16.1726 1206.88 16.1726C1205.56 16.1726 1204.97 16.2869 1204.1 16.7268C1202.64 17.4483 1201.46 19.3136 1201.46 20.9061C1201.46 21.39 1201.17 21.7155 1200.73 21.7155C1200.29 21.7155 1199.47 21.9531 1199.04 22.1994C1198.5 22.5162 1197.87 23.22 1197.6 23.8095C1197.4 24.2406 1197.36 24.4518 1197.34 25.3228C1197.3 26.4402 1197.41 26.9857 1197.8 27.6456C1198.24 28.4198 1199.19 29.0709 1200.12 29.2733C1200.79 29.4141 1207.79 29.4053 1208.1 29.2645C1208.5 29.0797 1208.69 28.543 1208.49 28.1119C1208.27 27.6544 1208.29 27.6544 1204.12 27.6104L1200.24 27.5664L1199.85 27.3025C1199.26 26.8801 1199.08 26.4842 1199.08 25.5604C1199.08 24.1614 1199.59 23.5984 1201.02 23.4312C1202.28 23.2904 1203.22 22.261 1203.22 21.0116C1203.22 19.9118 1203.98 18.7417 1205.05 18.2138C1205.53 17.985 1205.61 17.9762 1207.35 17.9322C1208.34 17.9058 1209.22 17.853 1209.3 17.8178C1209.62 17.6595 1211.27 20.6861 1211.93 22.6481C1213.43 27.1705 1213.15 31.992 1211.13 36.3296C1210.83 36.9366 1210.61 37.5437 1210.61 37.6757C1210.61 37.8429 1210.71 38.0276 1210.91 38.23C1211.19 38.5028 1211.27 38.5379 1211.55 38.494C1212 38.4148 1212.16 38.23 1212.64 37.2446C1213.51 35.4321 1214.1 33.5229 1214.45 31.3497C1214.64 30.1355 1214.66 27.3904 1214.49 25.9563C1214.39 25.2085 1214.38 24.8917 1214.45 24.7245C1214.5 24.5926 1214.73 24.0823 1214.95 23.5808C1216.82 19.3576 1217.45 15.1255 1216.68 12.0813C1215.64 8.00769 1212.22 5.76411 1207.43 6.00167C1204.32 6.15124 1200.97 7.15425 1197.25 9.06349C1196.52 9.44182 1195.9 9.74976 1195.88 9.74976C1195.86 9.74976 1195.9 9.52101 1195.97 9.23946C1196.12 8.63237 1196.15 6.8991 1196.02 6.56476C1195.85 6.15124 1195.56 6.03686 1194.58 6.00167C1194.07 5.99287 1193.59 5.99287 1193.49 6.01926ZM1194.37 8.18366C1194.29 8.85233 1194.09 9.5298 1193.77 10.1809C1193.54 10.6648 1193.2 11.0607 1191.72 12.5652C1190.62 13.7002 1189.94 14.4569 1189.89 14.6152C1189.82 14.9232 1189.91 15.1255 1192.21 19.8943C1193.18 21.9179 1193.98 23.6072 1193.98 23.6423C1193.98 23.6775 1193.85 23.8359 1193.68 23.9943L1193.39 24.2758L1192.82 23.5456C1192.51 23.1408 1191.41 21.7067 1190.37 20.3518C1188.01 17.2547 1187.99 17.2284 1187.48 17.2284H1187.08L1184.24 20.0702L1181.4 22.9121V23.3784C1181.4 23.6335 1181.46 24.5046 1181.54 25.3052L1181.67 26.757L1181.3 27.1353C1181.03 27.3992 1180.9 27.4872 1180.86 27.4168C1180.82 27.3552 1180.53 26.3346 1180.21 25.1469C1179.88 23.9591 1179.58 22.9209 1179.54 22.8417C1179.41 22.5953 1179.19 22.5162 1176.88 21.8827C1175.67 21.5483 1174.67 21.2668 1174.66 21.2492C1174.64 21.2316 1174.8 21.0468 1175.02 20.8357L1175.4 20.4573L1177.12 20.6157C1178.07 20.6949 1178.93 20.7477 1179.05 20.7125C1179.15 20.6861 1180.52 19.3839 1182.08 17.8266C1184.79 15.0992 1184.91 14.9672 1184.91 14.6504C1184.91 14.3865 1184.84 14.2457 1184.59 13.973C1184.4 13.7882 1182.82 12.5388 1181.06 11.2015C1179.31 9.86414 1177.88 8.74675 1177.88 8.70276C1177.88 8.66756 1178.01 8.51799 1178.17 8.36842L1178.45 8.08688L1182.74 10.1545C1185.9 11.6678 1187.11 12.2133 1187.34 12.2133C1187.64 12.2133 1187.79 12.0901 1189.44 10.4712C1191.06 8.86993 1191.27 8.69396 1191.95 8.35083C1192.68 7.99889 1193.55 7.74374 1194.14 7.73494L1194.43 7.72614L1194.37 8.18366ZM1209.42 7.81413C1211.13 8.06048 1212.38 8.63237 1213.37 9.60019C1215.19 11.4038 1215.71 14.4217 1214.86 18.2842C1214.67 19.1552 1213.88 21.7067 1213.69 22.0498C1213.65 22.1202 1213.51 21.8563 1213.33 21.3548C1212.93 20.2198 1212.08 18.5657 1211.27 17.3515C1208.97 13.9026 1205.81 11.3335 1201.96 9.78495L1200.83 9.33624L1202 8.93151C1204.87 7.9285 1207.46 7.54137 1209.42 7.81413ZM1178.06 24.0823C1178.1 24.1087 1178.2 24.4694 1178.31 24.8741L1178.51 25.6044L1177.68 26.8537C1177.23 27.5312 1176.7 28.3495 1176.5 28.6662L1176.16 29.2381L1176.13 28.4462C1176.11 27.4872 1176.31 25.6308 1176.57 24.4958L1176.76 23.6687L1177.38 23.8447C1177.73 23.9415 1178.03 24.0471 1178.06 24.0823ZM1175.81 35.9688C1177.34 39.7785 1179.93 42.9635 1183.37 45.2511C1184.58 46.0605 1186.23 46.914 1187.37 47.3187C1187.87 47.4947 1188.14 47.6354 1188.06 47.6706C1188 47.7058 1187.36 47.9346 1186.63 48.1809C1182.05 49.7206 1178.44 49.5887 1176.12 47.8026C1175.3 47.1779 1174.74 46.4213 1174.33 45.3655C1173.91 44.3185 1173.8 43.6234 1173.8 41.9957C1173.79 40.2976 1173.96 39.2154 1174.48 37.4118C1174.79 36.3296 1175.32 34.8778 1175.38 34.9306C1175.39 34.9482 1175.59 35.4145 1175.81 35.9688Z" fill="white"/>
<path d="M1208.62 40.4559C1208.17 40.6407 1207.94 41.2126 1208.15 41.6261C1208.48 42.2596 1209.37 42.286 1209.69 41.6789C1210.07 40.931 1209.38 40.148 1208.62 40.4559Z" fill="white"/>
<path d="M584.002 51.4193C584.293 51.8393 584.439 52.3206 584.439 52.8665C584.439 53.8444 584.128 54.6097 583.509 55.1641C582.888 55.7186 581.984 55.9958 580.793 55.9958H575.273V46.0894H580.635C581.691 46.0894 582.492 46.2951 583.038 46.7033C583.584 47.1132 583.858 47.7016 583.858 48.4669C583.858 48.8989 583.766 49.2815 583.58 49.6165C583.395 49.9499 583.154 50.2152 582.854 50.4074C583.33 50.6642 583.713 51.0009 584.004 51.4176M577.254 47.7152V49.8546H580.504C580.997 49.8546 581.346 49.7577 581.553 49.5638C581.759 49.37 581.865 49.1012 581.865 48.7577C581.865 48.0638 581.385 47.7152 580.424 47.7152H577.254ZM580.543 54.3325C581.203 54.3325 581.672 54.2084 581.95 53.9567C582.227 53.705 582.365 53.3325 582.365 52.841C582.365 52.4006 582.218 52.0502 581.927 51.79C581.637 51.5298 581.176 51.3989 580.541 51.3989H577.252V54.3308H580.541L580.543 54.3325Z" fill="white"/>
<path d="M596.768 55.9972H594.56L593.781 54.1758H588.497L587.718 55.9972H585.54L590.096 46.0908H592.21L596.768 55.9972ZM591.14 48.0058L589.278 52.351H593.002L591.14 48.0058Z" fill="white"/>
<path d="M606.577 53.3289L606.511 46.0908H608.492V55.9972H606.339L600.594 48.732L600.66 55.9972H598.677V46.0908H600.793L606.577 53.3289Z" fill="white"/>
<path d="M613.371 55.5025C612.553 55.0569 611.917 54.4447 611.463 53.6657C611.009 52.8851 610.783 52.0178 610.783 51.0569C610.783 50.096 611.012 49.2525 611.47 48.4668C611.927 47.6845 612.572 47.062 613.405 46.6046C614.237 46.1471 615.187 45.9175 616.252 45.9175C617.317 45.9175 618.174 46.108 618.954 46.4855C619.733 46.8648 620.361 47.3699 620.837 48.0042L619.16 49.2321C618.886 48.8103 618.492 48.4685 617.978 48.2083C617.463 47.9498 616.888 47.8188 616.254 47.8188C615.619 47.8188 615.007 47.9651 614.497 48.2542C613.987 48.545 613.589 48.9345 613.308 49.4226C613.028 49.9107 612.886 50.4515 612.886 51.0399C612.886 51.6283 613.026 52.1862 613.303 52.6777C613.58 53.1708 613.971 53.5603 614.478 53.8409C614.985 54.1215 615.563 54.2627 616.215 54.2627C616.929 54.2627 617.551 54.1062 618.084 53.7933C618.616 53.4821 618.994 53.113 619.213 52.6913L620.956 53.7746C620.499 54.4974 619.866 55.0756 619.06 55.511C618.255 55.948 617.301 56.164 616.201 56.164C615.101 56.164 614.194 55.9429 613.375 55.4974" fill="white"/>
<path d="M625.092 55.5142C624.25 55.0771 623.597 54.4734 623.13 53.6979C622.664 52.9241 622.431 52.038 622.431 51.0431C622.431 50.0482 622.66 49.203 623.118 48.4292C623.575 47.6537 624.223 47.0449 625.058 46.5993C625.895 46.1537 626.859 45.9326 627.951 45.9326C629.043 45.9326 629.98 46.152 630.817 46.5942C631.653 47.0347 632.303 47.6384 632.766 48.4105C633.228 49.1809 633.46 50.0363 633.46 50.9802C633.46 52.0023 633.22 52.9071 632.74 53.6945C632.259 54.4836 631.604 55.0924 630.772 55.5244C629.941 55.9564 629.004 56.1724 627.966 56.1724C626.929 56.1724 625.934 55.9547 625.094 55.5193M629.721 53.8033C630.24 53.521 630.643 53.135 630.929 52.6418C631.215 52.1469 631.359 51.6027 631.359 51.004C631.359 50.4054 631.211 49.8935 630.917 49.4122C630.623 48.9309 630.218 48.5534 629.701 48.2761C629.186 47.9989 628.602 47.8612 627.951 47.8612C627.3 47.8612 626.711 47.9972 626.187 48.271C625.662 48.5449 625.257 48.9156 624.965 49.3867C624.674 49.8578 624.529 50.3799 624.529 50.9513C624.529 51.5772 624.672 52.1384 624.958 52.635C625.244 53.1333 625.647 53.521 626.165 53.8033C626.686 54.0856 627.281 54.2268 627.949 54.2268C628.618 54.2268 629.199 54.0856 629.72 53.8033" fill="white"/>
<path d="M643.113 55.9958L640.92 52.2322H637.961V55.9958H635.888V46.0894H641.448C642.531 46.0894 643.412 46.3257 644.09 46.7968C644.767 47.2679 645.107 48.0366 645.107 49.1012C645.107 49.8308 644.92 50.4431 644.546 50.9312C644.172 51.4193 643.669 51.7747 643.034 51.9941L645.556 55.9958H643.113ZM637.961 47.9142V50.5298H641.342C641.844 50.5298 642.25 50.4244 642.556 50.2118C642.864 50.0009 643.019 49.6693 643.019 49.222C643.019 48.3513 642.456 47.9142 641.329 47.9142H637.959H637.961Z" fill="white"/>
<path d="M657.101 51.4193C657.391 51.8393 657.538 52.3206 657.538 52.8665C657.538 53.8444 657.228 54.6097 656.607 55.1641C655.987 55.7186 655.082 55.9958 653.891 55.9958H648.371V46.0894H653.733C654.789 46.0894 655.59 46.2951 656.136 46.7033C656.682 47.1132 656.956 47.7016 656.956 48.4669C656.956 48.8989 656.862 49.2815 656.679 49.6165C656.495 49.9499 656.252 50.2152 655.953 50.4074C656.429 50.6642 656.811 51.0009 657.102 51.4176M650.352 47.7152V49.8546H653.601C654.094 49.8546 654.444 49.7577 654.652 49.5638C654.857 49.37 654.963 49.1012 654.963 48.7577C654.963 48.0638 654.483 47.7152 653.522 47.7152H650.352ZM653.641 54.3325C654.301 54.3325 654.771 54.2084 655.048 53.9567C655.325 53.705 655.463 53.3325 655.463 52.841C655.463 52.4006 655.317 52.0502 655.026 51.79C654.735 51.5298 654.274 51.3989 653.64 51.3989H650.351V54.3308H653.64L653.641 54.3325Z" fill="white"/>
<path d="M667.556 55.9958L665.364 52.2322H662.405V55.9958H660.332V46.0894H665.891C666.975 46.0894 667.856 46.3257 668.534 46.7968C669.211 47.2679 669.551 48.0366 669.551 49.1012C669.551 49.8308 669.364 50.4431 668.99 50.9312C668.616 51.4193 668.112 51.7747 667.478 51.9941L670 55.9958H667.556ZM662.405 47.9142V50.5298H665.786C666.288 50.5298 666.694 50.4244 667 50.2118C667.308 50.0009 667.463 49.6693 667.463 49.222C667.463 48.3513 666.9 47.9142 665.772 47.9142H662.403H662.405Z" fill="white"/>
<path d="M682.422 55.9954H680.214L679.435 54.174H674.152L673.373 55.9954H671.194L675.75 46.089H677.864L682.422 55.9954ZM676.796 48.0056L674.934 52.3508H678.658L676.796 48.0056ZM676.391 46.0907H675.752L677.004 43.3101H679.148C679.148 43.3101 678.303 46.0907 676.391 46.0907Z" fill="white"/>
<path d="M685.578 55.8118C684.918 55.5839 684.381 55.2965 683.968 54.9546C683.555 54.6094 683.264 54.2624 683.095 53.9104L684.827 52.8135C685.442 53.8526 686.464 54.373 687.891 54.373C688.684 54.373 689.277 54.2624 689.674 54.0431C690.07 53.8237 690.269 53.5005 690.269 53.0788C690.269 52.788 690.155 52.5567 689.925 52.3849C689.696 52.2131 689.41 52.0839 689.066 51.9954C688.723 51.9087 688.243 51.8152 687.628 51.7182C686.765 51.5771 686.06 51.4257 685.515 51.2642C684.969 51.1009 684.503 50.8237 684.114 50.4308C683.726 50.038 683.534 49.4955 683.534 48.7999C683.534 47.8747 683.918 47.1638 684.691 46.6655C685.459 46.1672 686.48 45.9189 687.748 45.9189C688.849 45.9189 689.767 46.0924 690.502 46.4394C691.236 46.788 691.772 47.203 692.107 47.6876L690.364 48.771C690.153 48.4631 689.825 48.1995 689.379 47.9853C688.935 47.7693 688.391 47.6621 687.748 47.6621C687.053 47.6621 686.515 47.754 686.138 47.9393C685.759 48.1247 685.57 48.3747 685.57 48.691C685.57 48.9478 685.675 49.1468 685.886 49.2931C686.097 49.4393 686.366 49.5482 686.691 49.6247C687.015 49.6995 687.469 49.7812 688.051 49.8696C688.949 50.0006 689.689 50.1502 690.27 50.3169C690.852 50.4835 691.354 50.7795 691.777 51.2029C692.199 51.6247 692.412 52.2148 692.412 52.9733C692.412 53.6077 692.228 54.1638 691.864 54.6451C691.498 55.1247 690.973 55.4971 690.286 55.7624C689.599 56.026 688.789 56.1587 687.856 56.1587C687.002 56.1587 686.245 56.0447 685.583 55.8152" fill="white"/>
<path d="M590.898 30.504C589.567 31.2846 588.012 31.6775 586.234 31.6775C584.604 31.6775 583.162 31.3254 581.899 30.6197C580.635 29.9173 579.655 28.9513 578.963 27.72C578.271 26.4887 577.924 25.1248 577.924 23.6316C577.924 22.1384 578.276 20.8136 578.978 19.5942C579.684 18.3731 580.672 17.402 581.946 16.6758C583.22 15.9514 584.682 15.5891 586.332 15.5891C587.982 15.5891 589.347 15.9139 590.633 16.5602C591.919 17.2099 592.904 18.0636 593.584 19.118L597.771 16.0517C596.582 14.4684 595.019 13.2048 593.074 12.2609C591.128 11.317 588.88 10.8442 586.332 10.8442C583.785 10.8442 581.305 11.4157 579.228 12.5551C577.149 13.6997 575.54 15.249 574.397 17.2048C573.254 19.1605 572.683 21.3136 572.683 23.6673C572.683 26.021 573.249 28.2302 574.382 30.1758C575.514 32.1214 577.103 33.6503 579.147 34.7591C581.191 35.8696 583.541 36.4241 586.203 36.4241C588.864 36.4241 591.327 35.8798 593.339 34.7931C595.349 33.7047 596.926 32.2608 598.068 30.4581L593.716 27.754C593.167 28.8084 592.227 29.7285 590.898 30.5057" fill="white"/>
<path d="M635.582 25.4922C635.582 27.5109 635 29.0637 633.837 30.1487C632.672 31.2371 630.994 31.7796 628.8 31.7796C626.606 31.7796 624.837 31.2303 623.696 30.1317C622.555 29.0364 621.983 27.4871 621.983 25.4905V11.2661H616.815V26.6079C616.815 28.6062 617.318 30.346 618.329 31.8272C619.339 33.3085 620.749 34.4446 622.56 35.2354C624.371 36.0262 626.449 36.4191 628.8 36.4191C631.15 36.4191 633.22 36.0364 635.021 35.2677C636.822 34.5007 638.225 33.3698 639.235 31.8783C640.245 30.3868 640.749 28.596 640.749 26.5126V11.2678H635.58V25.4922H635.582Z" fill="white"/>
<path d="M611.839 30.9957C611.022 31.2491 610 31.4107 609.232 31.4107C608.082 31.4107 606.856 31.1675 606.856 28.2696V11.0894H601.65V28.8886C601.65 33.7576 604.239 36.4379 608.936 36.4379C610.444 36.4379 611.934 36.1539 612.829 35.8852L613.822 35.5892L613.286 30.5485L611.837 30.994L611.839 30.9957Z" fill="white"/>
<path d="M664.366 22.0333C665.111 21.5503 665.716 20.8939 666.177 20.0588C666.638 19.2255 666.867 18.2714 666.867 17.1949C666.867 15.2834 666.187 13.8208 664.827 12.8004C663.466 11.78 661.466 11.2681 658.832 11.2681H645.463V35.9635H659.228C662.192 35.9635 664.446 35.2714 665.993 33.8887C667.543 32.5061 668.313 30.5962 668.313 28.1608C668.313 26.8003 667.951 25.5996 667.228 24.5537C666.502 23.5112 665.548 22.6728 664.364 22.035M650.405 15.3191H658.308C660.701 15.3191 661.896 16.1847 661.896 17.9177C661.896 18.7748 661.64 19.4449 661.123 19.9279C660.607 20.4092 659.735 20.6507 658.507 20.6507H650.407V15.3191H650.405ZM662.111 30.8751C661.42 31.4993 660.252 31.8122 658.602 31.8122H650.405V24.5027H658.602C660.184 24.5027 661.335 24.8275 662.061 25.4755C662.784 26.1217 663.146 26.9959 663.146 28.0911C663.146 29.3207 662.801 30.2476 662.109 30.8751" fill="white"/>
<path d="M694.998 23.2318C694.998 21.2029 694.56 19.2387 693.696 17.3951C692.811 15.5176 691.451 13.9547 689.655 12.7557C687.842 11.538 685.607 10.9224 683.015 10.9224C680.66 10.9224 678.517 11.4836 676.643 12.5907C674.776 13.7013 673.301 15.2591 672.262 17.22C671.228 19.1638 670.703 21.39 670.703 23.8356C670.703 26.14 671.167 28.2709 672.085 30.1655C673.015 32.0974 674.447 33.6484 676.34 34.7743C678.218 35.8967 680.541 36.4665 683.245 36.4665C685.949 36.4665 688.231 35.8984 690.122 34.7777C691.99 33.6757 693.456 32.3814 694.476 30.9342L694.937 30.2811L691.253 27.39L690.742 28.1111C690.133 28.9716 689.168 29.8032 687.876 30.5838C686.611 31.3474 685.068 31.7352 683.294 31.7352C680.895 31.7352 679.046 31.0685 677.803 29.7556C676.701 28.5957 676.015 27.0634 675.76 25.1893H695V23.2369L694.998 23.2318ZM676.078 20.589C676.483 19.2301 677.177 18.1349 678.18 17.254C679.407 16.1774 680.956 15.6553 682.92 15.6553C684.328 15.6553 685.558 15.953 686.568 16.538C687.578 17.1247 688.355 17.8662 688.881 18.7404C689.242 19.339 689.5 19.958 689.653 20.589H676.078Z" fill="white"/>
<path d="M550.455 43.9801L555.232 39.2029C550.074 34.8526 542.356 35.1043 537.497 39.9631L534.127 43.3338L534.773 43.9801C539.103 48.31 546.125 48.31 550.455 43.9801Z" fill="white"/>
<path d="M534.771 3.24743L529.994 8.02462C535.152 12.3749 542.87 12.1232 547.727 7.26442L551.098 3.89369L550.451 3.24743C546.12 -1.08248 539.099 -1.08248 534.77 3.24743" fill="white"/>
<path d="M558.201 10.9956C553.851 16.1537 554.103 23.8714 558.962 28.7302L562.332 32.101L562.978 31.4547C567.308 27.1248 567.308 20.1027 562.978 15.7728L558.201 10.9956Z" fill="white"/>
<path d="M522.247 31.4546L527.025 36.2318C531.375 31.0737 531.123 23.356 526.264 18.4972L522.894 15.1265L522.247 15.7727C517.918 20.1026 517.918 27.1247 522.247 31.4546Z" fill="white"/>
</svg>