<svg width="206" height="206" viewBox="0 0 206 206" fill="none" xmlns="http://www.w3.org/2000/svg">
<path d="M102.16 64.0642C101.983 64.1123 101.342 64.2566 100.717 64.4008C98.0234 65.0259 96.5164 66.0035 93.1495 69.3211L90.5362 71.8694L82.6482 68.087C78.3034 65.9875 74.6159 64.2886 74.4556 64.2886C73.9265 64.2886 73.4776 64.6252 71.6659 66.4202C70.5436 67.5261 69.7901 68.4076 69.6779 68.7441C69.3412 69.7378 69.6298 70.0103 76.3314 75.1229L82.552 79.8829L78.6561 83.7775L74.7442 87.656L71.682 87.3675C69.9985 87.2073 68.4113 87.1271 68.1548 87.1752C67.6257 87.2714 63.5855 91.1179 63.1687 91.9192C62.8641 92.4962 63.0084 93.2975 63.4893 93.7463C63.7138 93.9547 64.7078 94.3233 66.1347 94.7079C67.4013 95.0605 68.4594 95.365 68.4915 95.3971C68.5235 95.4291 68.4113 96.0382 68.251 96.7434C67.4494 100.173 67.1447 104.308 67.4333 107.562C67.5295 108.667 67.6578 110.03 67.7059 110.607C67.786 111.584 67.754 111.729 67.1287 113.075C64.7399 118.204 63.2649 123.813 63.0244 128.637C62.6556 136.074 65.7018 141.875 71.3132 144.408C77.0529 147.004 84.7004 146.427 94.0313 142.677C94.9452 142.308 96.0514 141.827 96.5003 141.603C97.1577 141.266 97.4783 141.202 98.1356 141.266C103.491 141.731 104.26 141.747 106.649 141.571C111.651 141.17 115.627 140.113 119.972 137.997C122.136 136.939 124.862 135.288 125.295 134.775C125.407 134.631 125.551 134.263 125.599 133.942C125.68 133.445 125.615 133.301 125.118 132.804C124.253 131.939 123.868 132.019 121.671 133.429C118.882 135.224 114.569 136.987 111.042 137.757L110.625 137.853L110.545 135.401C110.465 133.413 110.401 132.788 110.112 132.035C109.647 130.849 108.701 129.663 107.627 128.942C106.12 127.948 105.735 127.884 100.316 127.772C95.5384 127.676 95.4101 127.659 94.8169 127.291C93.9031 126.73 93.4381 125.88 93.2618 124.438C93.0694 122.964 92.6685 122.082 91.7868 121.201C90.7767 120.207 89.7827 119.902 87.5862 119.902C85.4379 119.902 84.4439 119.646 83.53 118.861C81.1412 116.825 81.7183 113.043 84.6042 111.745C85.005 111.568 85.6463 111.408 86.0471 111.408C86.8968 111.408 88.0512 110.879 88.4841 110.286C88.6444 110.062 88.8528 109.453 88.933 108.94C89.1093 107.85 89.3979 107.353 90.1033 106.904C90.5843 106.6 90.8729 106.6 96.0674 106.632C101.31 106.68 101.551 106.696 102.176 107.033C103.058 107.497 103.811 108.299 104.212 109.164C104.533 109.821 104.565 110.254 104.645 114.485L104.725 119.069L105.206 119.758C105.479 120.143 106.008 120.672 106.376 120.928C107.002 121.377 107.194 121.409 109.038 121.521C111.138 121.649 111.892 121.89 112.613 122.659C113.318 123.412 113.463 124.069 113.463 126.538C113.463 127.82 113.527 129.038 113.607 129.246C114.04 130.384 115.355 130.689 116.204 129.855L116.669 129.39V126.682C116.669 123.621 116.509 122.787 115.643 121.425C114.713 119.999 113.367 119.005 111.843 118.62C111.459 118.524 110.417 118.396 109.535 118.332L107.932 118.22L107.835 113.892C107.755 110.527 107.675 109.389 107.467 108.748C106.601 106.023 104.324 104.004 101.599 103.555C100.941 103.443 98.5685 103.395 95.1857 103.427L89.8148 103.475L88.9009 103.923C87.6183 104.549 86.464 105.863 86.0631 107.129L85.7746 108.107L84.6042 108.395C78.7523 109.837 76.8605 116.985 81.2373 121.088C82.7765 122.531 84.5721 123.108 87.5221 123.108C89.5743 123.108 89.7987 123.284 90.1194 125.143C90.5523 127.692 91.7547 129.374 93.871 130.368L94.9452 130.881L99.9313 130.961L104.917 131.041L105.703 131.522C106.296 131.891 106.601 132.227 106.938 132.868C107.354 133.702 107.37 133.846 107.37 136.026V138.301L106.136 138.43C104.629 138.558 101.07 138.398 99.1136 138.109C88.0672 136.426 78.8004 129.631 73.9265 119.662C72.8844 117.514 71.7781 114.453 71.4415 112.77L71.2651 111.809L72.4515 109.645C74.2632 106.392 75.9145 103.779 76.0268 104.052C76.0749 104.18 76.2833 104.917 76.4917 105.686C76.9086 107.209 77.1651 107.61 77.8385 107.85C78.6721 108.123 79.1531 107.802 81.5259 105.43L83.8026 103.122V102.257C83.8026 101.776 83.6903 100.237 83.5621 98.8269L83.3055 96.2786L87.2175 92.368L91.1134 88.4734L95.7628 94.5316C98.312 97.8652 100.573 100.75 100.781 100.942C101.23 101.375 102.032 101.423 102.689 101.087C102.929 100.958 103.891 100.061 104.853 99.0993C106.553 97.3364 106.697 97.096 106.569 96.1824C106.553 96.0542 104.885 92.4962 102.865 88.2811C100.845 84.066 99.1938 80.5721 99.1938 80.508C99.1938 80.4439 99.9313 79.6585 100.845 78.7771C102.593 77.0301 104.853 75.5075 108.797 73.3439L110.785 72.2541L111.763 72.4464C115.771 73.2638 120.677 75.6197 124.525 78.5527C125.888 79.5944 128.694 82.1908 128.694 82.4152C128.694 82.4953 127.732 82.5594 126.561 82.5594C124.14 82.5594 123.066 82.7678 121.479 83.5691C118.834 84.8834 116.685 88.2811 116.669 91.182C116.669 92.0635 116.14 92.6565 115.355 92.6565C114.537 92.6565 113.046 93.0892 112.26 93.5379C111.282 94.1149 110.144 95.3971 109.647 96.4709C109.278 97.2562 109.214 97.6409 109.166 99.2275C109.102 101.263 109.294 102.257 110 103.459C110.817 104.869 112.533 106.055 114.232 106.424C115.451 106.68 128.213 106.664 128.774 106.408C129.511 106.071 129.848 105.093 129.479 104.308C129.094 103.475 129.127 103.475 121.527 103.395L114.457 103.314L113.751 102.834C112.661 102.064 112.34 101.343 112.34 99.6603C112.34 97.112 113.27 96.0862 115.868 95.7817C118.176 95.5253 119.876 93.6501 119.876 91.3743C119.876 89.3709 121.271 87.2393 123.227 86.2777C124.092 85.861 124.237 85.845 127.411 85.7648C129.223 85.7168 130.81 85.6206 130.954 85.5565C131.547 85.268 134.546 90.7813 135.748 94.3553C138.49 102.593 137.977 111.376 134.289 119.277C133.76 120.383 133.343 121.489 133.343 121.729C133.343 122.034 133.535 122.371 133.904 122.739C134.401 123.236 134.546 123.3 135.059 123.22C135.892 123.076 136.181 122.739 137.047 120.944C138.634 117.643 139.708 114.165 140.349 110.206C140.702 107.994 140.734 102.994 140.413 100.381C140.237 99.0192 140.221 98.4422 140.349 98.1377C140.446 97.8973 140.862 96.9677 141.263 96.0542C144.662 88.3612 145.816 80.6522 144.406 75.1069C142.514 67.6864 136.293 63.5995 127.555 64.0322C121.88 64.3046 115.787 66.1317 109.006 69.6096C107.675 70.2988 106.537 70.8597 106.505 70.8597C106.473 70.8597 106.553 70.443 106.681 69.9301C106.954 68.8243 107.002 65.6669 106.761 65.0579C106.457 64.3046 105.927 64.0963 104.132 64.0322C103.218 64.0162 102.336 64.0162 102.16 64.0642ZM103.763 68.0069C103.619 69.2249 103.25 70.459 102.673 71.645C102.24 72.5265 101.631 73.2477 98.9373 75.9883C96.9172 78.0558 95.6827 79.4342 95.6025 79.7226C95.4742 80.2836 95.6346 80.6522 99.8191 89.3389C101.583 93.0251 103.042 96.1023 103.042 96.1664C103.042 96.2305 102.801 96.519 102.496 96.8075L101.967 97.3203L100.925 95.9901C100.364 95.2528 98.3601 92.6404 96.4683 90.1723C92.1715 84.5308 92.1234 84.4827 91.1936 84.4827H90.4721L85.2936 89.6594L80.1151 94.8361V95.6856C80.1151 96.1504 80.2273 97.737 80.3716 99.1955L80.6121 101.84L79.9387 102.529C79.4577 103.01 79.2172 103.17 79.1371 103.042C79.073 102.93 78.5439 101.071 77.9507 98.907C77.3575 96.7434 76.8124 94.8522 76.7322 94.7079C76.4917 94.2592 76.0909 94.1149 71.8904 92.961C69.6779 92.3519 67.8662 91.8391 67.8341 91.807C67.8021 91.775 68.0907 91.4384 68.4915 91.0538L69.1969 90.3646L72.3233 90.6531C74.0548 90.7973 75.626 90.8935 75.8344 90.8294C76.0268 90.7813 78.5118 88.4093 81.3656 85.5725C86.3036 80.6041 86.5281 80.3637 86.5281 79.7868C86.5281 79.3059 86.3998 79.0495 85.9349 78.5527C85.5982 78.2161 82.7123 75.9403 79.5058 73.5042C76.3154 71.0681 73.7021 69.0326 73.7021 68.9525C73.7021 68.8884 73.9425 68.6159 74.2311 68.3435L74.7442 67.8306L82.568 71.5969C88.3237 74.3536 90.5362 75.3473 90.9531 75.3473C91.4982 75.3473 91.7707 75.1229 94.7688 72.1739C97.7188 69.257 98.1036 68.9365 99.3541 68.3114C100.685 67.6703 102.272 67.2055 103.33 67.1895L103.859 67.1735L103.763 68.0069ZM131.179 67.3337C134.289 67.7825 136.582 68.8243 138.377 70.5872C141.696 73.8728 142.642 79.3701 141.103 86.4059C140.75 87.9926 139.307 92.6404 138.954 93.2655C138.89 93.3937 138.634 92.9129 138.313 91.9994C137.576 89.9319 136.021 86.9188 134.546 84.7071C130.361 78.4245 124.605 73.7446 117.583 70.9238L115.531 70.1064L117.663 69.3692C122.89 67.5421 127.619 66.8369 131.179 67.3337ZM74.0387 96.9677C74.1029 97.0158 74.2953 97.6729 74.4876 98.4102L74.8564 99.7404L73.3493 102.016C72.5156 103.25 71.5537 104.741 71.201 105.318L70.5757 106.36L70.5276 104.917C70.4795 103.17 70.8483 99.7885 71.3132 97.721L71.6659 96.2145L72.8042 96.535C73.4295 96.7113 73.9906 96.9036 74.0387 96.9677ZM69.9344 118.62C72.7241 125.56 77.4376 131.362 83.7064 135.529C85.9188 137.003 88.933 138.558 91.0012 139.295C91.915 139.616 92.396 139.872 92.2677 139.936C92.1555 140 90.9851 140.417 89.6544 140.866C81.3015 143.671 74.7281 143.43 70.4955 140.177C69.0045 139.039 67.9945 137.66 67.2409 135.737C66.4714 133.83 66.279 132.564 66.279 129.599C66.263 126.506 66.5676 124.534 67.5135 121.249C68.0746 119.277 69.0366 116.633 69.1488 116.729C69.1648 116.761 69.5336 117.611 69.9344 118.62Z" fill="white"/>
<path d="M137.202 191.835L158.04 170.998C135.541 152.022 101.877 153.12 80.6834 174.314L65.9806 189.017L68.7995 191.835C87.6861 210.722 118.316 210.722 137.202 191.835Z" fill="#E5E137"/>
<path d="M68.7924 14.165L47.9548 35.0025C70.4541 53.9782 104.118 52.8803 125.304 31.6866L140.007 16.9839L137.188 14.165C118.294 -4.72165 87.6716 -4.72165 68.785 14.165" fill="#9C4AF4"/>
<path d="M170.992 47.9614C152.016 70.4607 153.114 104.124 174.308 125.318L189.011 140.021L191.829 137.202C210.716 118.315 210.716 87.6856 191.829 68.799L170.992 47.9614Z" fill="#F28C1C"/>
<path d="M14.165 137.202L35.0025 158.039C53.9782 135.54 52.8803 101.876 31.6866 80.6827L16.9839 65.98L14.165 68.7989C-4.72165 87.6855 -4.72165 118.315 14.165 137.202Z" fill="#02E6CA"/>
</svg>
